<svg width="33" height="35" viewBox="0 0 33 35" fill="none" xmlns="http://www.w3.org/2000/svg">
<path d="M32.0963 16.6052C32.0507 16.5023 30.9474 14.0547 28.4946 11.6019C25.2264 8.33369 21.0984 6.60645 16.555 6.60645C12.0115 6.60645 7.88354 8.33369 4.61532 11.6019C2.16253 14.0547 1.05401 16.5062 1.01363 16.6052C0.954383 16.7385 0.923767 16.8827 0.923767 17.0285C0.923767 17.1744 0.954383 17.3186 1.01363 17.4519C1.05922 17.5548 2.16253 20.0011 4.61532 22.4539C7.88354 25.7208 12.0115 27.448 16.555 27.448C21.0984 27.448 25.2264 25.7208 28.4946 22.4539C30.9474 20.0011 32.0507 17.5548 32.0963 17.4519C32.1555 17.3186 32.1861 17.1744 32.1861 17.0285C32.1861 16.8827 32.1555 16.7385 32.0963 16.6052ZM16.555 22.2376C15.5244 22.2376 14.5171 21.9321 13.6602 21.3595C12.8034 20.787 12.1355 19.9733 11.7412 19.0212C11.3468 18.0691 11.2436 17.0215 11.4447 16.0107C11.6457 15 12.142 14.0716 12.8706 13.3429C13.5993 12.6142 14.5277 12.118 15.5385 11.917C16.5492 11.7159 17.5968 11.8191 18.5489 12.2135C19.501 12.6078 20.3147 13.2757 20.8872 14.1325C21.4598 14.9893 21.7653 15.9967 21.7653 17.0272C21.7653 18.4091 21.2164 19.7344 20.2393 20.7115C19.2621 21.6887 17.9368 22.2376 16.555 22.2376Z" fill="black"/>
</svg>
