<?xml version="1.0" encoding="UTF-8"?>
<svg id="Layer_2" data-name="Layer 2" xmlns="http://www.w3.org/2000/svg" viewBox="0 0 645.37 403.36">
  <defs>
    <style>
      .cls-1 {
        fill: #1d6bb4;
      }

      .cls-1, .cls-2, .cls-3, .cls-4, .cls-5, .cls-6 {
        stroke-width: 0px;
      }

      .cls-2 {
        fill: #e92825;
      }

      .cls-3 {
        fill: #2793d1;
      }

      .cls-4 {
        fill: #000;
      }

      .cls-5 {
        fill: #1379b3;
      }

      .cls-6 {
        fill: #fff;
      }
    </style>
  </defs>
  <g id="Layer_1-2" data-name="Layer 1">
    <rect class="cls-3" width="645.37" height="403.36" rx="33.99" ry="33.99"/>
    <g>
      <path class="cls-6" d="M88.74,354.02l2.18,6.71c.17.52.65.87,1.2.87h7.05c1.22,0,1.73,1.57.74,2.29l-5.71,4.15c-.44.32-.63.89-.46,1.41l2.18,6.71c.38,1.16-.95,2.13-1.94,1.41l-5.71-4.15c-.44-.32-1.04-.32-1.49,0l-5.71,4.15c-.99.72-2.32-.25-1.94-1.41l2.18-6.71c.17-.52-.02-1.09-.46-1.41l-5.71-4.15c-.99-.72-.48-2.29.74-2.29h7.05c.55,0,1.03-.35,1.2-.87l2.18-6.71c.38-1.16,2.02-1.16,2.4,0Z"/>
      <path class="cls-6" d="M136.41,354.02l2.18,6.71c.17.52.65.87,1.2.87h7.05c1.22,0,1.73,1.57.74,2.29l-5.71,4.15c-.44.32-.63.89-.46,1.41l2.18,6.71c.38,1.16-.95,2.13-1.94,1.41l-5.71-4.15c-.44-.32-1.04-.32-1.49,0l-5.71,4.15c-.99.72-2.32-.25-1.94-1.41l2.18-6.71c.17-.52-.02-1.09-.46-1.41l-5.71-4.15c-.99-.72-.48-2.29.74-2.29h7.05c.55,0,1.03-.35,1.2-.87l2.18-6.71c.38-1.16,2.02-1.16,2.4,0Z"/>
      <path class="cls-6" d="M184.07,354.02l2.18,6.71c.17.52.65.87,1.2.87h7.05c1.22,0,1.73,1.57.74,2.29l-5.71,4.15c-.44.32-.63.89-.46,1.41l2.18,6.71c.38,1.16-.95,2.13-1.94,1.41l-5.71-4.15c-.44-.32-1.04-.32-1.49,0l-5.71,4.15c-.99.72-2.32-.25-1.94-1.41l2.18-6.71c.17-.52-.02-1.09-.46-1.41l-5.71-4.15c-.99-.72-.48-2.29.74-2.29h7.05c.55,0,1.03-.35,1.2-.87l2.18-6.71c.38-1.16,2.02-1.16,2.4,0Z"/>
      <path class="cls-6" d="M231.73,354.02l2.18,6.71c.17.52.65.87,1.2.87h7.05c1.22,0,1.73,1.57.74,2.29l-5.71,4.15c-.44.32-.63.89-.46,1.41l2.18,6.71c.38,1.16-.95,2.13-1.94,1.41l-5.71-4.15c-.44-.32-1.04-.32-1.49,0l-5.71,4.15c-.99.72-2.32-.25-1.94-1.41l2.18-6.71c.17-.52-.02-1.09-.46-1.41l-5.71-4.15c-.99-.72-.48-2.29.74-2.29h7.05c.55,0,1.03-.35,1.2-.87l2.18-6.71c.38-1.16,2.02-1.16,2.4,0Z"/>
      <path class="cls-6" d="M279.4,354.02l2.18,6.71c.17.52.65.87,1.2.87h7.05c1.22,0,1.73,1.57.74,2.29l-5.71,4.15c-.44.32-.63.89-.46,1.41l2.18,6.71c.38,1.16-.95,2.13-1.94,1.41l-5.71-4.15c-.44-.32-1.04-.32-1.49,0l-5.71,4.15c-.99.72-2.32-.25-1.94-1.41l2.18-6.71c.17-.52-.02-1.09-.46-1.41l-5.71-4.15c-.99-.72-.48-2.29.74-2.29h7.05c.55,0,1.03-.35,1.2-.87l2.18-6.71c.38-1.16,2.02-1.16,2.4,0Z"/>
      <path class="cls-6" d="M327.06,354.02l2.18,6.71c.17.52.65.87,1.2.87h7.05c1.22,0,1.73,1.57.74,2.29l-5.71,4.15c-.44.32-.63.89-.46,1.41l2.18,6.71c.38,1.16-.95,2.13-1.94,1.41l-5.71-4.15c-.44-.32-1.04-.32-1.49,0l-5.71,4.15c-.99.72-2.32-.25-1.94-1.41l2.18-6.71c.17-.52-.02-1.09-.46-1.41l-5.71-4.15c-.99-.72-.48-2.29.74-2.29h7.05c.55,0,1.03-.35,1.2-.87l2.18-6.71c.38-1.16,2.02-1.16,2.4,0Z"/>
      <path class="cls-6" d="M374.72,354.02l2.18,6.71c.17.52.65.87,1.2.87h7.05c1.22,0,1.73,1.57.74,2.29l-5.71,4.15c-.44.32-.63.89-.46,1.41l2.18,6.71c.38,1.16-.95,2.13-1.94,1.41l-5.71-4.15c-.44-.32-1.04-.32-1.49,0l-5.71,4.15c-.99.72-2.32-.25-1.94-1.41l2.18-6.71c.17-.52-.02-1.09-.46-1.41l-5.71-4.15c-.99-.72-.48-2.29.74-2.29h7.05c.55,0,1.03-.35,1.2-.87l2.18-6.71c.38-1.16,2.02-1.16,2.4,0Z"/>
      <path class="cls-6" d="M422.38,354.02l2.18,6.71c.17.52.65.87,1.2.87h7.05c1.22,0,1.73,1.57.74,2.29l-5.71,4.15c-.44.32-.63.89-.46,1.41l2.18,6.71c.38,1.16-.95,2.13-1.94,1.41l-5.71-4.15c-.44-.32-1.04-.32-1.49,0l-5.71,4.15c-.99.72-2.32-.25-1.94-1.41l2.18-6.71c.17-.52-.02-1.09-.46-1.41l-5.71-4.15c-.99-.72-.48-2.29.74-2.29h7.05c.55,0,1.03-.35,1.2-.87l2.18-6.71c.38-1.16,2.02-1.16,2.4,0Z"/>
      <path class="cls-6" d="M470.05,354.02l2.18,6.71c.17.52.65.87,1.2.87h7.05c1.22,0,1.73,1.57.74,2.29l-5.71,4.15c-.44.32-.63.89-.46,1.41l2.18,6.71c.38,1.16-.95,2.13-1.94,1.41l-5.71-4.15c-.44-.32-1.04-.32-1.49,0l-5.71,4.15c-.99.72-2.32-.25-1.94-1.41l2.18-6.71c.17-.52-.02-1.09-.46-1.41l-5.71-4.15c-.99-.72-.48-2.29.74-2.29h7.05c.55,0,1.03-.35,1.2-.87l2.18-6.71c.38-1.16,2.02-1.16,2.4,0Z"/>
      <path class="cls-6" d="M517.71,354.02l2.18,6.71c.17.52.65.87,1.2.87h7.05c1.22,0,1.73,1.57.74,2.29l-5.71,4.15c-.44.32-.63.89-.46,1.41l2.18,6.71c.38,1.16-.95,2.13-1.94,1.41l-5.71-4.15c-.44-.32-1.04-.32-1.49,0l-5.71,4.15c-.99.72-2.32-.25-1.94-1.41l2.18-6.71c.17-.52-.02-1.09-.46-1.41l-5.71-4.15c-.99-.72-.48-2.29.74-2.29h7.05c.55,0,1.03-.35,1.2-.87l2.18-6.71c.38-1.16,2.02-1.16,2.4,0Z"/>
      <path class="cls-6" d="M565.37,354.02l2.18,6.71c.17.52.65.87,1.2.87h7.05c1.22,0,1.73,1.57.74,2.29l-5.71,4.15c-.44.32-.63.89-.46,1.41l2.18,6.71c.38,1.16-.95,2.13-1.94,1.41l-5.71-4.15c-.44-.32-1.04-.32-1.49,0l-5.71,4.15c-.99.72-2.32-.25-1.94-1.41l2.18-6.71c.17-.52-.02-1.09-.46-1.41l-5.71-4.15c-.99-.72-.48-2.29.74-2.29h7.05c.55,0,1.03-.35,1.2-.87l2.18-6.71c.38-1.16,2.02-1.16,2.4,0Z"/>
      <path class="cls-6" d="M613.04,60.5l2.18,6.71c.17.52.65.87,1.2.87h7.05c1.22,0,1.73,1.57.74,2.29l-5.71,4.15c-.44.32-.63.89-.46,1.41l2.18,6.71c.38,1.16-.95,2.13-1.94,1.41l-5.71-4.15c-.44-.32-1.04-.32-1.49,0l-5.71,4.15c-.99.72-2.32-.25-1.94-1.41l2.18-6.71c.17-.52-.02-1.09-.46-1.41l-5.71-4.15c-.99-.72-.48-2.29.74-2.29h7.05c.55,0,1.03-.35,1.2-.87l2.18-6.71c.38-1.16,2.02-1.16,2.4,0Z"/>
      <path class="cls-6" d="M613.04,102.07l2.18,6.71c.17.52.65.87,1.2.87h7.05c1.22,0,1.73,1.57.74,2.29l-5.71,4.15c-.44.32-.63.89-.46,1.41l2.18,6.71c.38,1.16-.95,2.13-1.94,1.41l-5.71-4.15c-.44-.32-1.04-.32-1.49,0l-5.71,4.15c-.99.72-2.32-.25-1.94-1.41l2.18-6.71c.17-.52-.02-1.09-.46-1.41l-5.71-4.15c-.99-.72-.48-2.29.74-2.29h7.05c.55,0,1.03-.35,1.2-.87l2.18-6.71c.38-1.16,2.02-1.16,2.4,0Z"/>
      <path class="cls-6" d="M613.04,143.65l2.18,6.71c.17.52.65.87,1.2.87h7.05c1.22,0,1.73,1.57.74,2.29l-5.71,4.15c-.44.32-.63.89-.46,1.41l2.18,6.71c.38,1.16-.95,2.13-1.94,1.41l-5.71-4.15c-.44-.32-1.04-.32-1.49,0l-5.71,4.15c-.99.72-2.32-.25-1.94-1.41l2.18-6.71c.17-.52-.02-1.09-.46-1.41l-5.71-4.15c-.99-.72-.48-2.29.74-2.29h7.05c.55,0,1.03-.35,1.2-.87l2.18-6.71c.38-1.16,2.02-1.16,2.4,0Z"/>
      <path class="cls-6" d="M613.04,185.22l2.18,6.71c.17.52.65.87,1.2.87h7.05c1.22,0,1.73,1.57.74,2.29l-5.71,4.15c-.44.32-.63.89-.46,1.41l2.18,6.71c.38,1.16-.95,2.13-1.94,1.41l-5.71-4.15c-.44-.32-1.04-.32-1.49,0l-5.71,4.15c-.99.72-2.32-.25-1.94-1.41l2.18-6.71c.17-.52-.02-1.09-.46-1.41l-5.71-4.15c-.99-.72-.48-2.29.74-2.29h7.05c.55,0,1.03-.35,1.2-.87l2.18-6.71c.38-1.16,2.02-1.16,2.4,0Z"/>
      <path class="cls-6" d="M613.04,226.8l2.18,6.71c.17.52.65.87,1.2.87h7.05c1.22,0,1.73,1.57.74,2.29l-5.71,4.15c-.44.32-.63.89-.46,1.41l2.18,6.71c.38,1.16-.95,2.13-1.94,1.41l-5.71-4.15c-.44-.32-1.04-.32-1.49,0l-5.71,4.15c-.99.72-2.32-.25-1.94-1.41l2.18-6.71c.17-.52-.02-1.09-.46-1.41l-5.71-4.15c-.99-.72-.48-2.29.74-2.29h7.05c.55,0,1.03-.35,1.2-.87l2.18-6.71c.38-1.16,2.02-1.16,2.4,0Z"/>
      <path class="cls-6" d="M613.04,268.37l2.18,6.71c.17.52.65.87,1.2.87h7.05c1.22,0,1.73,1.57.74,2.29l-5.71,4.15c-.44.32-.63.89-.46,1.41l2.18,6.71c.38,1.16-.95,2.13-1.94,1.41l-5.71-4.15c-.44-.32-1.04-.32-1.49,0l-5.71,4.15c-.99.72-2.32-.25-1.94-1.41l2.18-6.71c.17-.52-.02-1.09-.46-1.41l-5.71-4.15c-.99-.72-.48-2.29.74-2.29h7.05c.55,0,1.03-.35,1.2-.87l2.18-6.71c.38-1.16,2.02-1.16,2.4,0Z"/>
      <path class="cls-6" d="M613.04,309.95l2.18,6.71c.17.52.65.87,1.2.87h7.05c1.22,0,1.73,1.57.74,2.29l-5.71,4.15c-.44.32-.63.89-.46,1.41l2.18,6.71c.38,1.16-.95,2.13-1.94,1.41l-5.71-4.15c-.44-.32-1.04-.32-1.49,0l-5.71,4.15c-.99.72-2.32-.25-1.94-1.41l2.18-6.71c.17-.52-.02-1.09-.46-1.41l-5.71-4.15c-.99-.72-.48-2.29.74-2.29h7.05c.55,0,1.03-.35,1.2-.87l2.18-6.71c.38-1.16,2.02-1.16,2.4,0Z"/>
      <path class="cls-6" d="M613.04,354.02l2.18,6.71c.17.52.65.87,1.2.87h7.05c1.22,0,1.73,1.57.74,2.29l-5.71,4.15c-.44.32-.63.89-.46,1.41l2.18,6.71c.38,1.16-.95,2.13-1.94,1.41l-5.71-4.15c-.44-.32-1.04-.32-1.49,0l-5.71,4.15c-.99.72-2.32-.25-1.94-1.41l2.18-6.71c.17-.52-.02-1.09-.46-1.41l-5.71-4.15c-.99-.72-.48-2.29.74-2.29h7.05c.55,0,1.03-.35,1.2-.87l2.18-6.71c.38-1.16,2.02-1.16,2.4,0Z"/>
      <path class="cls-6" d="M41.08,61.91l2.18,6.71c.17.52.65.87,1.2.87h7.05c1.22,0,1.73,1.57.74,2.29l-5.71,4.15c-.44.32-.63.89-.46,1.41l2.18,6.71c.38,1.16-.95,2.13-1.94,1.41l-5.71-4.15c-.44-.32-1.04-.32-1.49,0l-5.71,4.15c-.99.72-2.32-.25-1.94-1.41l2.18-6.71c.17-.52-.02-1.09-.46-1.41l-5.71-4.15c-.99-.72-.48-2.29.74-2.29h7.05c.55,0,1.03-.35,1.2-.87l2.18-6.71c.38-1.16,2.02-1.16,2.4,0Z"/>
      <path class="cls-6" d="M41.08,103.49l2.18,6.71c.17.52.65.87,1.2.87h7.05c1.22,0,1.73,1.57.74,2.29l-5.71,4.15c-.44.32-.63.89-.46,1.41l2.18,6.71c.38,1.16-.95,2.13-1.94,1.41l-5.71-4.15c-.44-.32-1.04-.32-1.49,0l-5.71,4.15c-.99.72-2.32-.25-1.94-1.41l2.18-6.71c.17-.52-.02-1.09-.46-1.41l-5.71-4.15c-.99-.72-.48-2.29.74-2.29h7.05c.55,0,1.03-.35,1.2-.87l2.18-6.71c.38-1.16,2.02-1.16,2.4,0Z"/>
      <path class="cls-6" d="M41.08,145.06l2.18,6.71c.17.52.65.87,1.2.87h7.05c1.22,0,1.73,1.57.74,2.29l-5.71,4.15c-.44.32-.63.89-.46,1.41l2.18,6.71c.38,1.16-.95,2.13-1.94,1.41l-5.71-4.15c-.44-.32-1.04-.32-1.49,0l-5.71,4.15c-.99.72-2.32-.25-1.94-1.41l2.18-6.71c.17-.52-.02-1.09-.46-1.41l-5.71-4.15c-.99-.72-.48-2.29.74-2.29h7.05c.55,0,1.03-.35,1.2-.87l2.18-6.71c.38-1.16,2.02-1.16,2.4,0Z"/>
      <path class="cls-6" d="M41.08,186.64l2.18,6.71c.17.52.65.87,1.2.87h7.05c1.22,0,1.73,1.57.74,2.29l-5.71,4.15c-.44.32-.63.89-.46,1.41l2.18,6.71c.38,1.16-.95,2.13-1.94,1.41l-5.71-4.15c-.44-.32-1.04-.32-1.49,0l-5.71,4.15c-.99.72-2.32-.25-1.94-1.41l2.18-6.71c.17-.52-.02-1.09-.46-1.41l-5.71-4.15c-.99-.72-.48-2.29.74-2.29h7.05c.55,0,1.03-.35,1.2-.87l2.18-6.71c.38-1.16,2.02-1.16,2.4,0Z"/>
      <path class="cls-6" d="M41.08,228.21l2.18,6.71c.17.52.65.87,1.2.87h7.05c1.22,0,1.73,1.57.74,2.29l-5.71,4.15c-.44.32-.63.89-.46,1.41l2.18,6.71c.38,1.16-.95,2.13-1.94,1.41l-5.71-4.15c-.44-.32-1.04-.32-1.49,0l-5.71,4.15c-.99.72-2.32-.25-1.94-1.41l2.18-6.71c.17-.52-.02-1.09-.46-1.41l-5.71-4.15c-.99-.72-.48-2.29.74-2.29h7.05c.55,0,1.03-.35,1.2-.87l2.18-6.71c.38-1.16,2.02-1.16,2.4,0Z"/>
      <path class="cls-6" d="M41.08,269.78l2.18,6.71c.17.52.65.87,1.2.87h7.05c1.22,0,1.73,1.57.74,2.29l-5.71,4.15c-.44.32-.63.89-.46,1.41l2.18,6.71c.38,1.16-.95,2.13-1.94,1.41l-5.71-4.15c-.44-.32-1.04-.32-1.49,0l-5.71,4.15c-.99.72-2.32-.25-1.94-1.41l2.18-6.71c.17-.52-.02-1.09-.46-1.41l-5.71-4.15c-.99-.72-.48-2.29.74-2.29h7.05c.55,0,1.03-.35,1.2-.87l2.18-6.71c.38-1.16,2.02-1.16,2.4,0Z"/>
      <path class="cls-6" d="M41.08,311.36l2.18,6.71c.17.52.65.87,1.2.87h7.05c1.22,0,1.73,1.57.74,2.29l-5.71,4.15c-.44.32-.63.89-.46,1.41l2.18,6.71c.38,1.16-.95,2.13-1.94,1.41l-5.71-4.15c-.44-.32-1.04-.32-1.49,0l-5.71,4.15c-.99.72-2.32-.25-1.94-1.41l2.18-6.71c.17-.52-.02-1.09-.46-1.41l-5.71-4.15c-.99-.72-.48-2.29.74-2.29h7.05c.55,0,1.03-.35,1.2-.87l2.18-6.71c.38-1.16,2.02-1.16,2.4,0Z"/>
      <path class="cls-6" d="M41.08,354.02l2.18,6.71c.17.52.65.87,1.2.87h7.05c1.22,0,1.73,1.57.74,2.29l-5.71,4.15c-.44.32-.63.89-.46,1.41l2.18,6.71c.38,1.16-.95,2.13-1.94,1.41l-5.71-4.15c-.44-.32-1.04-.32-1.49,0l-5.71,4.15c-.99.72-2.32-.25-1.94-1.41l2.18-6.71c.17-.52-.02-1.09-.46-1.41l-5.71-4.15c-.99-.72-.48-2.29.74-2.29h7.05c.55,0,1.03-.35,1.2-.87l2.18-6.71c.38-1.16,2.02-1.16,2.4,0Z"/>
      <path class="cls-6" d="M88.74,16.43l2.18,6.71c.17.52.65.87,1.2.87h7.05c1.22,0,1.73,1.57.74,2.29l-5.71,4.15c-.44.32-.63.89-.46,1.41l2.18,6.71c.38,1.16-.95,2.13-1.94,1.41l-5.71-4.15c-.44-.32-1.04-.32-1.49,0l-5.71,4.15c-.99.72-2.32-.25-1.94-1.41l2.18-6.71c.17-.52-.02-1.09-.46-1.41l-5.71-4.15c-.99-.72-.48-2.29.74-2.29h7.05c.55,0,1.03-.35,1.2-.87l2.18-6.71c.38-1.16,2.02-1.16,2.4,0Z"/>
      <path class="cls-6" d="M136.41,16.43l2.18,6.71c.17.52.65.87,1.2.87h7.05c1.22,0,1.73,1.57.74,2.29l-5.71,4.15c-.44.32-.63.89-.46,1.41l2.18,6.71c.38,1.16-.95,2.13-1.94,1.41l-5.71-4.15c-.44-.32-1.04-.32-1.49,0l-5.71,4.15c-.99.72-2.32-.25-1.94-1.41l2.18-6.71c.17-.52-.02-1.09-.46-1.41l-5.71-4.15c-.99-.72-.48-2.29.74-2.29h7.05c.55,0,1.03-.35,1.2-.87l2.18-6.71c.38-1.16,2.02-1.16,2.4,0Z"/>
      <path class="cls-6" d="M184.07,16.43l2.18,6.71c.17.52.65.87,1.2.87h7.05c1.22,0,1.73,1.57.74,2.29l-5.71,4.15c-.44.32-.63.89-.46,1.41l2.18,6.71c.38,1.16-.95,2.13-1.94,1.41l-5.71-4.15c-.44-.32-1.04-.32-1.49,0l-5.71,4.15c-.99.72-2.32-.25-1.94-1.41l2.18-6.71c.17-.52-.02-1.09-.46-1.41l-5.71-4.15c-.99-.72-.48-2.29.74-2.29h7.05c.55,0,1.03-.35,1.2-.87l2.18-6.71c.38-1.16,2.02-1.16,2.4,0Z"/>
      <path class="cls-6" d="M231.73,16.43l2.18,6.71c.17.52.65.87,1.2.87h7.05c1.22,0,1.73,1.57.74,2.29l-5.71,4.15c-.44.32-.63.89-.46,1.41l2.18,6.71c.38,1.16-.95,2.13-1.94,1.41l-5.71-4.15c-.44-.32-1.04-.32-1.49,0l-5.71,4.15c-.99.72-2.32-.25-1.94-1.41l2.18-6.71c.17-.52-.02-1.09-.46-1.41l-5.71-4.15c-.99-.72-.48-2.29.74-2.29h7.05c.55,0,1.03-.35,1.2-.87l2.18-6.71c.38-1.16,2.02-1.16,2.4,0Z"/>
      <path class="cls-6" d="M279.4,16.43l2.18,6.71c.17.52.65.87,1.2.87h7.05c1.22,0,1.73,1.57.74,2.29l-5.71,4.15c-.44.32-.63.89-.46,1.41l2.18,6.71c.38,1.16-.95,2.13-1.94,1.41l-5.71-4.15c-.44-.32-1.04-.32-1.49,0l-5.71,4.15c-.99.72-2.32-.25-1.94-1.41l2.18-6.71c.17-.52-.02-1.09-.46-1.41l-5.71-4.15c-.99-.72-.48-2.29.74-2.29h7.05c.55,0,1.03-.35,1.2-.87l2.18-6.71c.38-1.16,2.02-1.16,2.4,0Z"/>
      <path class="cls-6" d="M327.06,16.43l2.18,6.71c.17.52.65.87,1.2.87h7.05c1.22,0,1.73,1.57.74,2.29l-5.71,4.15c-.44.32-.63.89-.46,1.41l2.18,6.71c.38,1.16-.95,2.13-1.94,1.41l-5.71-4.15c-.44-.32-1.04-.32-1.49,0l-5.71,4.15c-.99.72-2.32-.25-1.94-1.41l2.18-6.71c.17-.52-.02-1.09-.46-1.41l-5.71-4.15c-.99-.72-.48-2.29.74-2.29h7.05c.55,0,1.03-.35,1.2-.87l2.18-6.71c.38-1.16,2.02-1.16,2.4,0Z"/>
      <path class="cls-6" d="M374.72,16.43l2.18,6.71c.17.52.65.87,1.2.87h7.05c1.22,0,1.73,1.57.74,2.29l-5.71,4.15c-.44.32-.63.89-.46,1.41l2.18,6.71c.38,1.16-.95,2.13-1.94,1.41l-5.71-4.15c-.44-.32-1.04-.32-1.49,0l-5.71,4.15c-.99.72-2.32-.25-1.94-1.41l2.18-6.71c.17-.52-.02-1.09-.46-1.41l-5.71-4.15c-.99-.72-.48-2.29.74-2.29h7.05c.55,0,1.03-.35,1.2-.87l2.18-6.71c.38-1.16,2.02-1.16,2.4,0Z"/>
      <path class="cls-6" d="M422.38,16.43l2.18,6.71c.17.52.65.87,1.2.87h7.05c1.22,0,1.73,1.57.74,2.29l-5.71,4.15c-.44.32-.63.89-.46,1.41l2.18,6.71c.38,1.16-.95,2.13-1.94,1.41l-5.71-4.15c-.44-.32-1.04-.32-1.49,0l-5.71,4.15c-.99.72-2.32-.25-1.94-1.41l2.18-6.71c.17-.52-.02-1.09-.46-1.41l-5.71-4.15c-.99-.72-.48-2.29.74-2.29h7.05c.55,0,1.03-.35,1.2-.87l2.18-6.71c.38-1.16,2.02-1.16,2.4,0Z"/>
      <path class="cls-6" d="M470.05,16.43l2.18,6.71c.17.52.65.87,1.2.87h7.05c1.22,0,1.73,1.57.74,2.29l-5.71,4.15c-.44.32-.63.89-.46,1.41l2.18,6.71c.38,1.16-.95,2.13-1.94,1.41l-5.71-4.15c-.44-.32-1.04-.32-1.49,0l-5.71,4.15c-.99.72-2.32-.25-1.94-1.41l2.18-6.71c.17-.52-.02-1.09-.46-1.41l-5.71-4.15c-.99-.72-.48-2.29.74-2.29h7.05c.55,0,1.03-.35,1.2-.87l2.18-6.71c.38-1.16,2.02-1.16,2.4,0Z"/>
      <path class="cls-6" d="M517.71,16.43l2.18,6.71c.17.52.65.87,1.2.87h7.05c1.22,0,1.73,1.57.74,2.29l-5.71,4.15c-.44.32-.63.89-.46,1.41l2.18,6.71c.38,1.16-.95,2.13-1.94,1.41l-5.71-4.15c-.44-.32-1.04-.32-1.49,0l-5.71,4.15c-.99.72-2.32-.25-1.94-1.41l2.18-6.71c.17-.52-.02-1.09-.46-1.41l-5.71-4.15c-.99-.72-.48-2.29.74-2.29h7.05c.55,0,1.03-.35,1.2-.87l2.18-6.71c.38-1.16,2.02-1.16,2.4,0Z"/>
      <path class="cls-6" d="M565.37,16.43l2.18,6.71c.17.52.65.87,1.2.87h7.05c1.22,0,1.73,1.57.74,2.29l-5.71,4.15c-.44.32-.63.89-.46,1.41l2.18,6.71c.38,1.16-.95,2.13-1.94,1.41l-5.71-4.15c-.44-.32-1.04-.32-1.49,0l-5.71,4.15c-.99.72-2.32-.25-1.94-1.41l2.18-6.71c.17-.52-.02-1.09-.46-1.41l-5.71-4.15c-.99-.72-.48-2.29.74-2.29h7.05c.55,0,1.03-.35,1.2-.87l2.18-6.71c.38-1.16,2.02-1.16,2.4,0Z"/>
      <path class="cls-6" d="M613.04,16.43l2.18,6.71c.17.52.65.87,1.2.87h7.05c1.22,0,1.73,1.57.74,2.29l-5.71,4.15c-.44.32-.63.89-.46,1.41l2.18,6.71c.38,1.16-.95,2.13-1.94,1.41l-5.71-4.15c-.44-.32-1.04-.32-1.49,0l-5.71,4.15c-.99.72-2.32-.25-1.94-1.41l2.18-6.71c.17-.52-.02-1.09-.46-1.41l-5.71-4.15c-.99-.72-.48-2.29.74-2.29h7.05c.55,0,1.03-.35,1.2-.87l2.18-6.71c.38-1.16,2.02-1.16,2.4,0Z"/>
      <path class="cls-6" d="M41.08,16.43l2.18,6.71c.17.52.65.87,1.2.87h7.05c1.22,0,1.73,1.57.74,2.29l-5.71,4.15c-.44.32-.63.89-.46,1.41l2.18,6.71c.38,1.16-.95,2.13-1.94,1.41l-5.71-4.15c-.44-.32-1.04-.32-1.49,0l-5.71,4.15c-.99.72-2.32-.25-1.94-1.41l2.18-6.71c.17-.52-.02-1.09-.46-1.41l-5.71-4.15c-.99-.72-.48-2.29.74-2.29h7.05c.55,0,1.03-.35,1.2-.87l2.18-6.71c.38-1.16,2.02-1.16,2.4,0Z"/>
    </g>
    <g>
      <path class="cls-5" d="M160.68,80.19c11.69,0,21.16-4.67,21.16-10.43s-9.48-10.43-21.16-10.43-21.16,4.67-21.16,10.43,9.48,10.43,21.16,10.43ZM160.68,65.42c5.67,0,10.27,1.94,10.27,4.34s-4.6,4.34-10.27,4.34-10.27-1.94-10.27-4.34,4.6-4.34,10.27-4.34Z"/>
      <path class="cls-5" d="M73.96,190.88c21.99-39.01-1.98-5.82,50.87-2.72,1.49.02,3.24.42,2.19,2.1-2.74,4.47-4.98,8.97-7.61,13.44-2.32,3.52-4.18,8.66-7.15,11.24-3.28,2.75-8.91.84-9.72-3.22-1.05-4.13,2.97-7.43,3.95-11.02,0-1.09-1.35-1.73-2.33-1.87-1.41-.07-1.76,1.07-2.56,2.34-.87,1.48-1.61,2.94-2.56,4.22-2.7,4.06-9.58,3.1-10.98-1.54-.88-3.02.5-4.93,2.15-7.87.5-.97,1.67-2.48.97-3.42-.77-1.02-2.63-1.67-3.59-.38-1.87,2.6-3.14,6.57-6.83,7.28-4.87,1.18-8.94-4.01-6.91-8.31l.11-.26Z"/>
      <path class="cls-5" d="M245.72,190.88c-21.99-39.01,1.98-5.82-50.87-2.72-1.49.02-3.24.42-2.19,2.1,2.74,4.47,4.98,8.97,7.61,13.44,2.32,3.52,4.18,8.66,7.15,11.24,3.28,2.75,8.91.84,9.72-3.22,1.05-4.13-2.97-7.43-3.95-11.02,0-1.09,1.35-1.73,2.33-1.87,1.41-.07,1.76,1.07,2.56,2.34.87,1.48,1.61,2.94,2.56,4.22,2.7,4.06,9.58,3.1,10.98-1.54.88-3.02-.5-4.93-2.15-7.87-.5-.97-1.67-2.48-.97-3.42.77-1.02,2.63-1.67,3.59-.38,1.87,2.6,3.14,6.57,6.83,7.28,4.87,1.18,8.94-4.01,6.91-8.31l-.11-.26Z"/>
      <path class="cls-5" d="M100.21,73.47c4.71,8.16,11.66,10.69,19.8,11.96,2.46.39,2.86,3.8.94,5.34l-19.29,15.46c-1.66,1.33-4.2.77-5.07-1.14-5.25-11.55-7.2-22.35-1.8-31.44,1.16-1.95,4.29-2.14,5.42-.18Z"/>
      <path class="cls-5" d="M218.98,73.47c-4.71,8.16-11.66,10.69-19.8,11.96-2.46.39-2.86,3.8-.94,5.34l19.29,15.46c1.66,1.33,4.2.77,5.07-1.14,5.25-11.55,7.2-22.35,1.8-31.44-1.16-1.95-4.29-2.14-5.42-.18Z"/>
      <path class="cls-5" d="M228.83,145.12c-.34-1.49-.66-2.97-1.09-4.44-1.81-6.07-4.77-11.75-8.36-17.02-1.23-1.8-2.53-3.55-3.89-5.26-8.36-10.48-19.37-19.83-32.3-24.58-1.05-.39-2.12-.75-3.19-1.08-3.3-1.01-6.66-1.87-10.09-2.39-3.28-.49-6.61-.78-9.95-.82-3.33.04-6.67.33-9.95.82-3.43.51-6.79,1.37-10.09,2.39-1.07.33-2.14.69-3.19,1.08-12.93,4.75-23.94,14.1-32.3,24.58-1.36,1.71-2.66,3.46-3.89,5.26-3.59,5.27-6.55,10.95-8.36,17.02-.44,1.47-.75,2.96-1.09,4.44-2.24,9.66-.07,21.29,8.85,27.28,4.62,3.09,10.14,4.67,15.63,5.63,6.69,1.16,13.65,1.33,20.42,1.02,1.54-.07,3.27-.33,4.49.82,1.9,1.8-.7,5.62-1.47,7.43-2.25,5.23-4.56,10.41-6.31,15.85-1.14,3.54-2.32,7.3-1.91,11.05.54,4.92,3.55,9.2,7.68,12.09,3.76,2.64,8.09,3.52,12.59,4.11,2.96.39,5.93.6,8.9.61,2.97-.01,5.94-.22,8.9-.61,4.5-.59,8.83-1.47,12.59-4.11,4.13-2.89,7.14-7.17,7.68-12.09.41-3.75-.77-7.5-1.91-11.05-1.75-5.44-4.06-10.62-6.31-15.85-.78-1.81-3.37-5.62-1.47-7.43,1.22-1.16,2.95-.89,4.49-.82,6.77.31,13.73.14,20.42-1.02,5.48-.95,11.01-2.53,15.63-5.63,8.93-5.98,11.09-17.62,8.85-27.28ZM118.71,144.79c-4.45-5.83-6.65-20.65.74-20.33,5.16.84,10.08,3.88,15.18,6.04,4.93,2.53,14.42,5.84,16.59,9.18l.1.19c1.7,5.15-9.22,11.57-17.06,12.12-6.08.52-12.19-2.31-15.56-7.21ZM200.94,144.79c-3.37,4.9-9.48,7.73-15.56,7.21-7.83-.55-18.76-6.97-17.06-12.12l.1-.19c2.16-3.34,11.66-6.65,16.59-9.18,5.11-2.16,10.03-5.2,15.18-6.04,7.39-.32,5.19,14.51.74,20.33Z"/>
    </g>
    <g>
      <path class="cls-5" d="M498.11,177.58c11.69,0,21.16-4.67,21.16-10.43s-9.48-10.43-21.16-10.43-21.16,4.67-21.16,10.43,9.48,10.43,21.16,10.43ZM498.11,162.81c5.67,0,10.27,1.94,10.27,4.34s-4.6,4.34-10.27,4.34-10.27-1.94-10.27-4.34,4.6-4.34,10.27-4.34Z"/>
      <path class="cls-5" d="M411.39,288.28c21.99-39.01-1.98-5.82,50.87-2.72,1.49.02,3.24.42,2.19,2.1-2.74,4.47-4.98,8.97-7.61,13.44-2.32,3.52-4.18,8.66-7.15,11.24-3.28,2.75-8.91.84-9.72-3.22-1.05-4.13,2.97-7.43,3.95-11.02,0-1.09-1.35-1.73-2.33-1.87-1.41-.07-1.76,1.07-2.56,2.34-.87,1.48-1.61,2.94-2.56,4.22-2.7,4.06-9.58,3.1-10.98-1.54-.88-3.02.5-4.93,2.15-7.87.5-.97,1.67-2.48.97-3.42-.77-1.02-2.63-1.67-3.59-.38-1.87,2.6-3.14,6.57-6.83,7.28-4.87,1.18-8.94-4.01-6.91-8.31l.11-.26Z"/>
      <path class="cls-5" d="M583.14,288.28c-21.99-39.01,1.98-5.82-50.87-2.72-1.49.02-3.24.42-2.19,2.1,2.74,4.47,4.98,8.97,7.61,13.44,2.32,3.52,4.18,8.66,7.15,11.24,3.28,2.75,8.91.84,9.72-3.22,1.05-4.13-2.97-7.43-3.95-11.02,0-1.09,1.35-1.73,2.33-1.87,1.41-.07,1.76,1.07,2.56,2.34.87,1.48,1.61,2.94,2.56,4.22,2.7,4.06,9.58,3.1,10.98-1.54.88-3.02-.5-4.93-2.15-7.87-.5-.97-1.67-2.48-.97-3.42.77-1.02,2.63-1.67,3.59-.38,1.87,2.6,3.14,6.57,6.83,7.28,4.87,1.18,8.94-4.01,6.91-8.31l-.11-.26Z"/>
      <path class="cls-5" d="M437.63,170.87c4.71,8.16,11.66,10.69,19.8,11.96,2.46.39,2.86,3.8.94,5.34l-19.29,15.46c-1.66,1.33-4.2.77-5.07-1.14-5.25-11.55-7.2-22.35-1.8-31.44,1.16-1.95,4.29-2.14,5.42-.18Z"/>
      <path class="cls-5" d="M556.41,170.87c-4.71,8.16-11.66,10.69-19.8,11.96-2.46.39-2.86,3.8-.94,5.34l19.29,15.46c1.66,1.33,4.2.77,5.07-1.14,5.25-11.55,7.2-22.35,1.8-31.44-1.16-1.95-4.29-2.14-5.42-.18Z"/>
      <path class="cls-5" d="M566.25,242.51c-.34-1.49-.66-2.97-1.09-4.44-1.81-6.07-4.77-11.75-8.36-17.02-1.23-1.8-2.53-3.55-3.89-5.26-8.36-10.48-19.37-19.83-32.3-24.58-1.05-.39-2.12-.75-3.19-1.08-3.3-1.01-6.66-1.87-10.09-2.39-3.28-.49-6.61-.78-9.95-.82-3.33.04-6.67.33-9.95.82-3.43.51-6.79,1.37-10.09,2.39-1.07.33-2.14.69-3.19,1.08-12.93,4.75-23.94,14.1-32.3,24.58-1.36,1.71-2.66,3.46-3.89,5.26-3.59,5.27-6.55,10.95-8.36,17.02-.44,1.47-.75,2.96-1.09,4.44-2.24,9.66-.07,21.29,8.85,27.28,4.62,3.09,10.14,4.67,15.63,5.63,6.69,1.16,13.65,1.33,20.42,1.02,1.54-.07,3.27-.33,4.49.82,1.9,1.8-.7,5.62-1.47,7.43-2.25,5.23-4.56,10.41-6.31,15.85-1.14,3.54-2.32,7.3-1.91,11.05.54,4.92,3.55,9.2,7.68,12.09,3.76,2.64,8.09,3.52,12.59,4.11,2.96.39,5.93.6,8.9.61,2.97-.01,5.94-.22,8.9-.61,4.5-.59,8.83-1.47,12.59-4.11,4.13-2.89,7.14-7.17,7.68-12.09.41-3.75-.77-7.5-1.91-11.05-1.75-5.44-4.06-10.62-6.31-15.85-.78-1.81-3.37-5.62-1.47-7.43,1.22-1.16,2.95-.89,4.49-.82,6.77.31,13.73.14,20.42-1.02,5.48-.95,11.01-2.53,15.63-5.63,8.93-5.98,11.09-17.62,8.85-27.28ZM456.14,242.18c-4.45-5.83-6.65-20.65.74-20.33,5.16.84,10.08,3.88,15.18,6.04,4.93,2.53,14.42,5.84,16.59,9.18l.1.19c1.7,5.15-9.22,11.57-17.06,12.12-6.08.52-12.19-2.31-15.56-7.21ZM538.37,242.18c-3.37,4.9-9.48,7.73-15.56,7.21-7.83-.55-18.76-6.97-17.06-12.12l.1-.19c2.16-3.34,11.66-6.65,16.59-9.18,5.11-2.16,10.03-5.2,15.18-6.04,7.39-.32,5.19,14.51.74,20.33Z"/>
    </g>
    <path class="cls-6" d="M464.25,125.78c-.59-1.23-1.39-2.33-2.4-3.29-1.05-.99-2.26-1.76-3.61-2.3-1.21-.47-2.48-.71-3.77-.71-.32,0-.64.01-.96.04-1.46.03-2.86.35-4.14.94-.74.34-1.44.77-2.09,1.27-.07.06-.15.11-.22.17-.39.26-.76.56-1.1.88-.2.19-.38.38-.57.56,0-.05,0-.1,0-.15-.02-.35-.07-.69-.13-1.03-.09-.47-.2-.99-.37-1.64-.72-2.83-2.53-5.21-5.09-6.7-1.24-.72-2.62-1.14-4.04-1.23-.38-.04-.76-.06-1.14-.06-.93,0-1.84.12-2.72.37l-.32.08c-1.08-.41-2.25-.63-3.44-.63-.49,0-.99.04-1.49.11-.93.13-1.83.37-2.68.71.05-.18.1-.35.15-.53.25-1.07.38-2.14.38-3.19,0-1.8-.51-3.6-1.47-5.2-.54-.89-1.21-1.72-2.01-2.47-.75-.7-1.59-1.3-2.53-1.8-1.53-.81-3.15-1.21-4.82-1.21h-.54c-.33,0-.65.02-.97.05-.34-.03-.68-.05-1.02-.05h-.91c-2.23,0-4.38.81-6.06,2.27l-3.21,2.8c-.69.6-1.28,1.3-1.76,2.08-.38.62-.67,1.09-.85,1.41-.59,1.03-1.01,2.15-1.25,3.34l-.15.52c-.04.16-.08.31-.12.47-.12.52-.22.99-.32,1.41-.02.1-.04.2-.06.3,0,0,0,.02,0,.03-1.09-.36-2.23-.55-3.4-.55-.85,0-1.87.11-2.98.49-.88-.25-1.81-.38-2.76-.38-1.16,0-2.29.21-3.4.62-1.36-.59-2.82-.94-4.37-.98-.2-.01-.39-.02-.59-.02-.68,0-1.36.08-2.04.2-2.01-2.45-5.09-3.87-8.53-3.87-.81,0-1.62.11-2.4.32-.17,0-.34-.01-.5-.01h-1.32c-.85,0-1.7.12-2.52.35-1.04.3-2.01.74-2.89,1.32-.43-.26-.88-.48-1.35-.66l-.95-.37c-1.07-.42-2.21-.64-3.36-.64h-2.23c-.95,0-1.88.14-2.76.41-.74.06-1.46.19-2.16.39-.92.27-1.79.64-2.59,1.12-.86.52-1.6,1.16-2.24,1.88-1.77-3.41-5.28-5.49-9.36-5.49h-2.53c-2.09,0-4.12.54-6.05,1.6-1.26.7-2.4,1.6-3.35,2.66-.56.49-1.07,1.03-1.54,1.64-.49.64-.94,1.33-1.33,2.05-.06.12-.13.24-.19.36-.08.17-.17.32-.26.45-.9,1.25-1.6,2.6-2.07,4.02-.17-.5-.37-1-.62-1.47-1.08-2.66-3.24-4.72-6.01-5.7-.99-.36-2.04-.54-3.1-.54-.77,0-1.56.09-2.38.28,0,0-.45.1-.51.11-2.53.36-4.82,1.77-6.29,3.91-.07.11-.14.22-.21.32-.35-.54-.75-1.05-1.19-1.51-.18-.62-.4-1.24-.69-1.85-.63-1.3-1.47-2.46-2.54-3.48-1.11-1.06-2.4-1.88-3.81-2.44-1.26-.5-2.58-.75-3.94-.75-.37,0-.74.02-1.11.06-1.35.01-2.64.28-3.84.75-.05-.02-.09-.04-.13-.06-1.26-.5-2.58-.75-3.94-.75-.37,0-.74.02-1.11.06-1.57.01-3.06.35-4.4.98-.78.36-1.52.81-2.2,1.34-.11.09-.22.17-.33.26-.43.28-.83.6-1.2.95-.66.62-1.22,1.23-1.71,1.84-.29.26-.57.54-.87.85-.52.55-1.01,1.14-1.43,1.74-.5.7-.93,1.43-1.29,2.19-.32.68-.57,1.37-.76,2.07-.09-.03-.17-.07-.26-.1-.11-.04-.22-.09-.33-.13-.37-.13-.77-.27-1.2-.4-.72-.22-1.46-.36-2.21-.4l-.17-.04c-.73-.18-1.48-.27-2.23-.27h-2.26c-1.25,0-2.49.21-3.73.64-.09.03-.19.07-.28.1-.77.09-1.53.29-2.26.57l-.31.12c-1.45.42-3.05,1.25-4.6,2.8-.67.67-1.31,1.42-1.88,2.21-.49.68-.93,1.37-1.3,2.02-.2.36-.5.88-.77,1.54-.25.52-.46,1.04-.64,1.56-.2.59-.36,1.18-.47,1.79-.06.16-.12.32-.18.48-.16.46-.3.92-.41,1.34-.23.92-.35,1.88-.35,2.87,0,2.08.35,4.22,1.04,6.35.47,1.46,1,2.89,1.57,4.24.08.19.16.37.25.55,1.26,2.51,3.17,4.48,5.52,5.69.65.34,1.3.65,1.95.95-.14.66-.23,1.33-.23,2,0,3.07,1.39,5.93,3.83,7.86.82.65,1.74,1.2,2.74,1.63.86.38,1.74.66,2.68.86.52.11,1.14.22,1.85.26.23.02,1.42.14,1.42.14.54.05.97.08,1.39.08.45,0,.88-.02,1.3-.07.04,0,.25-.03.3-.04.97,0,1.87-.13,2.74-.36,0,0,.02,0,.03,0,.52.11,1.13.21,1.83.25.23.02,1.41.14,1.41.14.53.05.98.08,1.39.08.44,0,.88-.02,1.3-.07.05,0,.25-.03.31-.04.97,0,1.88-.13,2.83-.38.09-.02.17-.05.26-.07,1.43-.19,3.22-.74,5.07-2.09.6-.44,1.21-.93,1.79-1.44.39-.34.76-.67,1.11-1,1.33-.97,2.37-2.29,3.02-3.81.27-.35.52-.72.74-1.1.14-.24.27-.49.39-.76.33.03.66.06,1,.06.85,0,1.9-.11,3.02-.48.89.33,1.83.55,2.81.62.03,0,.05,0,.08,0,.28.02.56.03.84.03,2.12,0,4.12-.5,5.96-1.47.04.02.08.05.12.07,1.53.81,3.16,1.22,4.83,1.22.93,0,2.08-.13,3.32-.57,1.12.41,2.32.64,3.54.64.58,0,1.16-.05,1.73-.16,1.15.57,2.42.92,3.75,1,.17,0,.38.01.55.01,1.45,0,2.85-.31,4.14-.91.8.21,1.68.35,2.68.35,1.62,0,3.28-.37,4.96-1.11.36-.16.67-.29.92-.39.39-.16.77-.34,1.14-.55.48-.27.97-.58,1.44-.88,1.18-.77,2.2-1.75,3-2.88.38-.43.73-.86,1.04-1.3.57-.48,1.1-1.02,1.6-1.6.57-.67,1.09-1.4,1.56-2.17.21-.35.41-.71.59-1.07.45.45.94.87,1.48,1.23.6.4,1.25.75,1.92,1.02.77.32,1.57.55,2.38.69.04,0,.07.01.1.02.4.06,1.02.15,1.76.15h.64c.52,0,1.03-.04,1.54-.12l1.93.35c.53.1,1.08.14,1.62.14h1.32c.24,0,.59,0,1.07-.05,1.07-.09,2.12-.34,3.12-.75.03-.01.07-.03.1-.04.12-.05.24-.1.35-.16.15.06.31.11.46.16,1.05.32,2.14.47,3.43.47.45,0,.85-.03,1.33-.07.2-.02,1.51-.13,1.51-.13h.95l2.47.18c.22.02.44.02.66.02.65,0,1.29-.07,1.92-.2h.34c.61,0,1.21-.06,1.79-.16.38.09.76.16,1.14.2.35.04.7.06,1.05.06.55,0,1.09-.02,1.63-.06,1-.07,2.31-.31,3.72-.97,1.35.67,2.83,1.03,4.34,1.03,1.19,0,2.36-.2,3.46-.57.14.05.29.1.44.15,1.11.35,2.23.53,3.33.53.53,0,1.05-.04,1.55-.12,1.21.5,2.53.76,3.88.76,1.44,0,2.81-.25,4.08-.76,1.23.55,2.58.86,3.99.86.83,0,1.66-.11,2.47-.34.5-.05.96-.12,1.41-.22,1.03-.23,1.99-.59,2.88-1.08.9.37,1.84.63,2.79.74.35.04.7.06,1.05.06.55,0,1.09-.02,1.63-.06,1.05-.07,2.44-.35,3.94-1.08,2.16,1.52,4.32,1.78,5.54,1.78.23,0,.45,0,.68-.02.63-.05,1.25-.14,1.84-.26.03.38.08.81.17,1.29v.38c0,1.46.29,2.9.85,4.25.08.21.18.4.27.6-.6,1.31-.92,2.63-.92,4.02,0,3.01,1.36,5.82,3.76,7.71.77.6,1.63,1.12,2.54,1.52.79.35,1.61.61,2.46.79.44.09,1,.19,1.66.23.16.02,1.03.1,1.03.1.49.05.88.07,1.27.07.43,0,.85-.02,1.25-.07.03,0,.11-.01.12-.01.89-.02,1.75-.14,2.53-.36.04,0,.07-.02.11-.03,1.35-.21,2.99-.74,4.67-1.96.51-.37,1.02-.78,1.52-1.22.27-.24.53-.47.77-.69,1.2-.91,2.16-2.09,2.8-3.46.2-.28.39-.57.57-.87.33-.58.61-1.2.88-1.94.17-.47.33-.96.48-1.48.09-.32.17-.62.26-.95.06-.24.13-.51.19-.82.13-.46.24-.93.32-1.42.08-.48.12-.97.14-1.51l.02-.1c.07-.36.15-.87.18-1.49l.07-1.06c.02-.14.05-.29.08-.44.04-.2.07-.38.1-.57.03-.02.05-.05.08-.07.47-.39.92-.84,1.34-1.33.46-.53.88-1.1,1.24-1.7.94-1.57,1.42-3.25,1.42-4.99v-.51c0-.61-.06-1.21-.17-1.79.43-.53.81-1.12,1.16-1.78.13-.25.26-.52.4-.81.27-.56.5-1.15.71-1.78.34-1.1.51-2.14.51-3.19,0-1.6-.36-3.17-1.08-4.64Z"/>
    <g>
      <path class="cls-4" d="M252.4,127.31l1.22.3h.68c.29.09.56.18.81.27.22.09.44.17.64.25.2.08.34.15.41.22.34.18.73.33,1.16.46.44.12.8.34,1.1.66.18.16.36.43.56.81.19.38.38.65.56.81.76.65,1.25,1.28,1.47,1.87.21.6.32,1.13.32,1.6l-.1,2.23v.94c0,.25-.1.62-.29,1.11-.19.49-.42,1.01-.68,1.55s-.5,1.04-.73,1.5c-.23.46-.37.76-.44.89-.16.47-.43.86-.83,1.16-.39.3-.78.55-1.17.73-.61.47-1.18.9-1.7,1.28-.53.38-1.12.57-1.77.57-.27,0-.53-.03-.79-.08s-.61-.08-1.06-.08c-.09,0-.2,0-.34.02-.13.01-.28.03-.44.05-.18.02-.36.03-.54.03h-.57c-.18,0-.41-.03-.69-.1-.28-.07-.55-.16-.79-.27-.29-.11-.61-.25-.95-.41-.61-.27-1.23-.57-1.86-.89-.63-.33-1.14-.87-1.52-1.64-.47-1.12-.91-2.3-1.3-3.51-.39-1.22-.59-2.39-.59-3.51,0-.22.02-.43.07-.61.04-.18.1-.37.17-.56.07-.19.15-.39.24-.59.09-.2.18-.46.27-.78,0-.34.05-.65.15-.94s.24-.61.42-.95c0-.07.1-.28.3-.64.2-.36.45-.74.74-1.15.29-.41.6-.77.93-1.1s.6-.49.83-.49l.95-.37c.29,0,.56-.01.79-.03.24-.02.48-.1.73-.24.25-.11.48-.21.71-.29.22-.08.45-.12.68-.12h2.26ZM249.5,129.94c-.38,0-.77.26-1.15.78-.38.52-.73,1.11-1.03,1.77-.3.66-.55,1.3-.74,1.91-.19.61-.29,1-.29,1.18v2.63c0,.31.2.79.59,1.43.39.64.88,1.28,1.47,1.92.59.64,1.21,1.21,1.87,1.71.66.5,1.27.74,1.81.74h.64c.47,0,.98-.12,1.54-.37.55-.25,1.06-.59,1.52-1.01.46-.43.85-.93,1.17-1.5.31-.57.47-1.18.47-1.81v-3.17c0-.47-.06-.85-.19-1.13-.12-.28-.29-.55-.49-.81-.2-.26-.44-.55-.71-.88-.27-.33-.55-.77-.84-1.33-.18-.13-.38-.3-.59-.51-.21-.2-.44-.39-.68-.57-.24-.18-.48-.34-.74-.47-.26-.13-.5-.2-.73-.2h-.64c-.18,0-.39-.01-.64-.03-.25-.02-.5-.06-.74-.1-.27-.04-.56-.1-.88-.17Z"/>
      <path class="cls-4" d="M273.67,116.44c.34-.09.66-.07.98.05.32.12.6.3.84.54.25.24.44.51.59.81.15.3.22.59.22.86,0,.13-.04.33-.12.57s-.18.5-.3.76c-.12.26-.24.5-.35.71-.11.21-.2.34-.27.39-.16.16-.32.26-.49.32s-.33.09-.49.1c-.16.01-.32.03-.47.05-.16.02-.3.08-.44.17-.18.07-.41.13-.68.19-.27.06-.54.14-.81.24-.27.1-.53.24-.79.42s-.47.44-.62.78c-.07.25-.18.71-.34,1.38-.16.67-.32,1.37-.47,2.09-.18.85-.37,1.79-.57,2.8,0,.25.06.44.19.57.12.14.28.25.46.34.18.09.37.15.57.17.2.02.38.03.54.03h1.05c.07,0,.15.02.25.07.1.05.21.09.32.13.11.07.24.12.37.17v.68c0,.07-.05.19-.15.35-.1.17-.22.34-.37.51-.15.17-.29.32-.44.44-.15.12-.27.19-.35.19h-1.59c-.65,0-1.09.1-1.3.3-.21.2-.32.54-.32,1.01-.05.13-.09.26-.13.37-.05.11-.08.22-.1.32-.02.1-.03.19-.03.25,0,.79-.05,1.53-.14,2.21s-.13,1.18-.13,1.47c0,.09-.03.31-.08.66-.06.35-.12.73-.2,1.15-.08.42-.15.82-.2,1.2-.06.38-.08.65-.08.81l-.1,1.62c0,.07-.02.19-.05.37-.03.18-.07.37-.1.57s-.06.4-.08.59-.03.33-.03.42c0,.38-.02.68-.05.89s-.08.39-.13.52c-.06.14-.1.25-.14.36-.03.1-.05.23-.05.39,0,.09-.04.29-.12.59-.08.3-.17.64-.27,1-.1.36-.21.71-.34,1.05-.12.34-.23.59-.32.74-.27.34-.5.64-.68.89-.18.26-.36.65-.54,1.16-.14.07-.37.25-.69.56-.33.3-.68.62-1.06.96-.38.34-.76.64-1.13.91s-.69.41-.96.41c-.25,0-.44.02-.59.05-.15.03-.29.08-.42.14-.13.06-.26.1-.39.13-.12.03-.29.05-.49.05h-.27c-.13,0-.25-.01-.35-.03s-.17-.01-.22.03c-.09.04-.19.07-.29.08-.1.01-.22.02-.35.02-.11,0-.28-.01-.51-.03-.22-.02-.46-.05-.69-.07-.24-.02-.46-.05-.66-.07-.2-.02-.34-.03-.41-.03-.09,0-.27-.03-.54-.08-.27-.06-.55-.15-.83-.27-.28-.12-.53-.27-.74-.44-.21-.17-.32-.38-.32-.62,0-.07.05-.2.15-.39.1-.19.22-.4.36-.62.13-.23.27-.44.4-.64.14-.2.24-.34.3-.41,0-.09.1-.23.29-.42.19-.19.42-.38.69-.56.27-.18.55-.34.84-.49.29-.15.53-.22.71-.22h.57s.11.1.2.17c.04.04.11.1.19.15.08.06.14.11.19.15l.84.27c.16.04.3.08.44.1.11.04.24.07.37.08s.24.02.3.02h.74c.47,0,.88-.11,1.23-.32.35-.21.69-.51,1.03-.89.11-.02.24-.23.37-.61s.28-.84.44-1.38c.16-.54.31-1.13.46-1.77.15-.64.28-1.25.41-1.82.12-.57.22-1.07.29-1.5.07-.43.1-.7.1-.81v-.64s.02-.24.07-.57c.04-.34.11-.75.19-1.23.08-.48.17-1.02.27-1.6.1-.58.2-1.16.29-1.72.09-.56.18-1.08.27-1.55.09-.47.17-.84.24-1.11,0-.16.01-.33.03-.52.02-.19.06-.37.1-.52.04-.18.09-.36.14-.54,0-.29-.13-.51-.39-.64-.26-.13-.55-.24-.88-.3-.33-.07-.62-.15-.88-.24s-.39-.26-.39-.51c0-.16.02-.32.05-.49.03-.17.14-.32.32-.46.13-.16.33-.26.57-.32.25-.06.49-.1.74-.13.25-.03.48-.1.69-.19.21-.09.37-.25.46-.47.09-.11.18-.33.27-.64.09-.31.17-.69.24-1.11.07-.43.13-.89.2-1.38.07-.49.12-.96.17-1.4.04-.44.08-.83.1-1.18.02-.35.03-.6.03-.76.11-.18.24-.42.37-.73.14-.3.2-.59.2-.86s.07-.55.2-.83.3-.56.49-.83c.19-.27.39-.52.61-.74.21-.22.41-.4.59-.54.32-.31.57-.61.78-.88.2-.27.47-.56.81-.88.16-.07.3-.16.44-.29s.27-.24.42-.36c.15-.11.3-.21.47-.29.17-.08.38-.12.62-.12h.57Z"/>
      <path class="cls-4" d="M282.69,116.44c.34-.09.66-.07.98.05.31.12.6.3.84.54.25.24.44.51.59.81.15.3.22.59.22.86,0,.13-.04.33-.12.57-.08.25-.18.5-.3.76-.12.26-.24.5-.35.71-.11.21-.2.34-.27.39-.16.16-.32.26-.49.32-.17.06-.33.09-.49.1-.16.01-.32.03-.47.05s-.3.08-.44.17c-.18.07-.4.13-.68.19-.27.06-.54.14-.81.24-.27.1-.53.24-.79.42-.26.18-.47.44-.62.78-.07.25-.18.71-.34,1.38-.16.67-.32,1.37-.47,2.09-.18.85-.37,1.79-.57,2.8,0,.25.06.44.19.57.12.14.27.25.46.34.18.09.37.15.57.17.2.02.38.03.54.03h1.05c.07,0,.15.02.25.07.1.05.21.09.32.13.11.07.24.12.37.17v.68c0,.07-.05.19-.15.35-.1.17-.23.34-.37.51-.15.17-.29.32-.44.44-.15.12-.26.19-.35.19h-1.59c-.65,0-1.09.1-1.3.3-.21.2-.32.54-.32,1.01-.04.13-.09.26-.13.37-.04.11-.08.22-.1.32-.02.1-.03.19-.03.25,0,.79-.05,1.53-.13,2.21-.09.69-.13,1.18-.13,1.47,0,.09-.03.31-.08.66-.06.35-.12.73-.2,1.15-.08.42-.15.82-.2,1.2-.06.38-.08.65-.08.81l-.1,1.62c0,.07-.02.19-.05.37-.03.18-.07.37-.1.57s-.06.4-.08.59c-.02.19-.03.33-.03.42,0,.38-.02.68-.05.89s-.08.39-.13.52c-.06.14-.1.25-.13.36-.03.1-.05.23-.05.39,0,.09-.04.29-.12.59-.08.3-.17.64-.27,1-.1.36-.21.71-.34,1.05-.12.34-.23.59-.32.74-.27.34-.5.64-.68.89-.18.26-.36.65-.54,1.16-.13.07-.37.25-.69.56-.33.3-.68.62-1.06.96-.38.34-.76.64-1.13.91-.37.27-.69.41-.96.41-.25,0-.44.02-.59.05-.15.03-.29.08-.42.14-.14.06-.26.1-.39.13-.12.03-.29.05-.49.05h-.27c-.14,0-.25-.01-.36-.03-.1-.02-.17-.01-.22.03-.09.04-.19.07-.29.08-.1.01-.22.02-.36.02-.11,0-.28-.01-.51-.03-.22-.02-.46-.05-.69-.07-.24-.02-.46-.05-.66-.07-.2-.02-.34-.03-.41-.03-.09,0-.27-.03-.54-.08-.27-.06-.55-.15-.83-.27s-.53-.27-.74-.44c-.21-.17-.32-.38-.32-.62,0-.07.05-.2.15-.39.1-.19.22-.4.35-.62.13-.23.27-.44.41-.64s.24-.34.3-.41c0-.09.1-.23.29-.42.19-.19.42-.38.69-.56.27-.18.55-.34.84-.49.29-.15.53-.22.71-.22h.57s.11.1.2.17c.05.04.11.1.19.15.08.06.14.11.19.15l.84.27c.16.04.3.08.44.1.11.04.24.07.37.08s.24.02.3.02h.74c.47,0,.88-.11,1.23-.32.35-.21.69-.51,1.03-.89.11-.02.24-.23.37-.61s.28-.84.44-1.38.31-1.13.46-1.77c.15-.64.28-1.25.41-1.82s.22-1.07.29-1.5.1-.7.1-.81v-.64s.02-.24.07-.57c.04-.34.11-.75.19-1.23.08-.48.17-1.02.27-1.6.1-.58.2-1.16.29-1.72.09-.56.18-1.08.27-1.55.09-.47.17-.84.24-1.11,0-.16.01-.33.03-.52.02-.19.06-.37.1-.52.04-.18.09-.36.13-.54,0-.29-.13-.51-.39-.64-.26-.13-.55-.24-.88-.3-.33-.07-.62-.15-.88-.24-.26-.09-.39-.26-.39-.51,0-.16.02-.32.05-.49.03-.17.14-.32.32-.46.13-.16.33-.26.57-.32.25-.06.5-.1.74-.13.25-.03.48-.1.69-.19.21-.09.37-.25.46-.47.09-.11.18-.33.27-.64.09-.31.17-.69.24-1.11.07-.43.14-.89.2-1.38.07-.49.12-.96.17-1.4.04-.44.08-.83.1-1.18s.03-.6.03-.76c.11-.18.24-.42.37-.73s.2-.59.2-.86.07-.55.2-.83c.13-.28.3-.56.49-.83s.39-.52.61-.74c.21-.22.41-.4.59-.54.31-.31.57-.61.78-.88s.47-.56.81-.88c.16-.07.3-.16.44-.29.14-.12.28-.24.42-.36.15-.11.3-.21.47-.29.17-.08.38-.12.62-.12h.57Z"/>
      <path class="cls-4" d="M285.32,130.04c.38,0,.7.14.94.42.25.28.37.58.37.89l-.3.95c.14.13.22.33.27.57.02.11.03.24.03.37,0,.45-.05.87-.15,1.25-.1.38-.15.81-.15,1.28v.27c0,.11-.01.24-.03.39s-.06.29-.1.42c-.04.16-.09.33-.13.51v.37c0,.25-.04.45-.12.61s-.16.36-.25.61c-.04.18-.12.37-.22.56-.1.19-.15.41-.15.66,0,.09.02.21.07.36.04.15.11.29.2.44s.2.27.32.37c.12.1.26.15.42.15.18,0,.34-.06.49-.17.15-.11.26-.24.35-.37.11-.11.23-.21.35-.29.12-.08.26-.12.42-.12h.64c.14,0,.21.07.24.2.02.14.03.29.03.47,0,.07-.1.2-.3.4-.2.2-.43.42-.68.66-.25.24-.5.46-.74.68-.25.21-.42.36-.51.42-.07.16-.21.43-.44.81s-.47.77-.74,1.17c-.27.39-.56.74-.86,1.05-.3.3-.57.46-.79.46-.16,0-.33-.05-.52-.15-.19-.1-.37-.24-.52-.41s-.29-.34-.39-.52c-.1-.18-.15-.36-.15-.54v-.54c0-.18-.01-.34-.03-.47s-.1-.2-.24-.2v-.64l.27-.95v-1.59c0-.34.04-.61.13-.81.09-.2.14-.46.14-.78v-.3c0-.16.05-.38.15-.67.1-.29.21-.61.32-.95.11-.34.22-.67.32-1,.1-.33.15-.61.15-.86,0-.18-.07-.38-.22-.59s-.39-.32-.73-.32c-.14,0-.25.05-.35.13-.1.09-.39.14-.86.14-.05-.02-.09-.08-.14-.17-.09-.13-.13-.3-.13-.51v-.54c0-.2.2-.5.59-.89s.84-.79,1.35-1.18c.51-.39,1-.74,1.47-1.05s.78-.46.91-.46ZM285.42,122.08c.09,0,.21-.02.35-.05.15-.03.3-.07.46-.1s.31-.07.46-.1c.15-.03.25-.05.32-.05.31.11.52.3.61.57.09.27.22.55.4.84,0,.18.02.36.05.54.03.18.05.35.05.51,0,.14-.05.3-.14.49-.09.19-.13.43-.13.73-.04.16-.11.35-.19.57-.08.23-.18.43-.3.62-.12.19-.27.35-.44.47s-.37.16-.59.12c-.32,0-.66-.11-1.03-.32-.37-.21-.65-.49-.83-.83-.16-.14-.21-.34-.17-.61.04-.27.07-.51.07-.71,0-.61.1-1.1.3-1.49.2-.38.45-.79.74-1.22Z"/>
      <path class="cls-4" d="M295.65,130.31c.29.04.61.11.96.2.35.09.66.22.93.39.27.17.48.39.64.68.16.28.21.65.17,1.1,0,.25-.05.48-.15.71-.1.22-.23.43-.37.62-.15.19-.31.34-.49.46s-.34.17-.47.17c-.18-.02-.33-.04-.46-.05-.12-.01-.22-.02-.29-.02h-.47c-.38,0-.81.01-1.28.03s-.8.1-.98.24c-.18,0-.29.06-.32.17-.03.11-.05.25-.05.41l-.47.74c-.05.27-.09.53-.13.78-.05.2-.09.41-.13.61-.05.2-.08.34-.1.41v.54l-.27.95c-.05.09-.1.18-.17.27-.05.09-.09.17-.14.25-.04.08-.08.15-.1.22,0,.2.03.48.1.83.07.35.16.69.27,1.01.11.33.24.61.39.86.15.25.31.38.49.4.34,0,.69-.13,1.05-.4.36-.27.71-.57,1.06-.89.35-.33.69-.62,1.01-.88.33-.26.62-.38.89-.36.34.05.53.13.57.25.04.12.04.25,0,.39-.02.32-.15.68-.39,1.08s-.52.8-.84,1.2c-.33.39-.66.75-1.01,1.08-.35.33-.64.56-.86.69-.74.47-1.41.87-1.99,1.18s-1.24.45-1.96.41c-.32-.02-.57-.19-.78-.49-.2-.3-.36-.65-.47-1.05-.11-.39-.2-.78-.25-1.17s-.08-.66-.08-.84l.1-.3c0-.09-.01-.24-.03-.46-.02-.21-.04-.44-.05-.67-.01-.24-.02-.47-.03-.69-.01-.22,0-.39.02-.51,0-.7.08-1.24.24-1.64.16-.39.24-.82.24-1.27l.37-.84v-.78c.02-.07.08-.24.17-.52s.2-.6.32-.95.24-.7.35-1.06c.11-.36.2-.64.27-.84,0-.13.08-.3.24-.51s.34-.4.56-.59c.21-.19.44-.36.68-.49.24-.13.44-.2.62-.2.14-.04.21-.08.24-.1.02-.02.03-.04.03-.07,0-.02.01-.05.03-.08.02-.03.1-.07.24-.12.34-.04.6-.1.78-.15.18-.06.35-.11.51-.17.16-.06.31-.1.46-.13.15-.03.35-.04.62-.02Z"/>
      <path class="cls-4" d="M302.97,130.04c.38,0,.7.14.95.42.25.28.37.58.37.89l-.3.95c.13.13.22.33.27.57.02.11.03.24.03.37,0,.45-.05.87-.15,1.25-.1.38-.15.81-.15,1.28v.27c0,.11-.01.24-.03.39-.02.15-.06.29-.1.42-.04.16-.09.33-.13.51v.37c0,.25-.04.45-.12.61-.08.16-.16.36-.25.61-.05.18-.12.37-.22.56-.1.19-.15.41-.15.66,0,.09.02.21.07.36.04.15.11.29.2.44s.2.27.32.37c.12.1.26.15.42.15.18,0,.34-.06.49-.17.15-.11.26-.24.35-.37.11-.11.23-.21.35-.29.12-.08.26-.12.42-.12h.64c.13,0,.21.07.24.2.02.14.03.29.03.47,0,.07-.1.2-.3.4-.2.2-.43.42-.68.66-.25.24-.5.46-.74.68-.25.21-.42.36-.51.42-.07.16-.21.43-.44.81s-.47.77-.74,1.17c-.27.39-.56.74-.86,1.05-.3.3-.57.46-.79.46-.16,0-.33-.05-.52-.15-.19-.1-.37-.24-.52-.41s-.29-.34-.39-.52c-.1-.18-.15-.36-.15-.54v-.54c0-.18-.01-.34-.03-.47s-.1-.2-.24-.2v-.64l.27-.95v-1.59c0-.34.04-.61.14-.81.09-.2.13-.46.13-.78v-.3c0-.16.05-.38.15-.67s.21-.61.32-.95c.11-.34.22-.67.32-1,.1-.33.15-.61.15-.86,0-.18-.07-.38-.22-.59-.15-.21-.39-.32-.73-.32-.13,0-.25.05-.35.13-.1.09-.39.14-.86.14-.05-.02-.09-.08-.13-.17-.09-.13-.14-.3-.14-.51v-.54c0-.2.2-.5.59-.89s.84-.79,1.35-1.18c.51-.39,1-.74,1.47-1.05.47-.3.78-.46.91-.46ZM303.08,122.08c.09,0,.21-.02.35-.05s.3-.07.46-.1c.16-.03.31-.07.46-.1.15-.03.25-.05.32-.05.31.11.52.3.61.57.09.27.22.55.41.84,0,.18.02.36.05.54.03.18.05.35.05.51,0,.14-.05.3-.13.49-.09.19-.14.43-.14.73-.04.16-.11.35-.19.57-.08.23-.18.43-.3.62-.12.19-.27.35-.44.47-.17.12-.37.16-.59.12-.32,0-.66-.11-1.03-.32-.37-.21-.65-.49-.83-.83-.16-.14-.21-.34-.17-.61s.07-.51.07-.71c0-.61.1-1.1.3-1.49.2-.38.45-.79.74-1.22Z"/>
      <path class="cls-4" d="M316.85,129.94c.47,0,.81.13,1.01.4.2.27.3.64.3,1.11,0,.09-.03.29-.1.59s-.15.64-.25,1.01-.21.75-.32,1.13c-.11.38-.2.69-.27.91,0,.18-.01.37-.03.56-.02.19-.1.44-.24.76-.18.14-.27.35-.27.66v.66l-.1,1.79v1.32c0,.07,0,.19.02.35s.03.34.07.51.1.32.19.44c.09.12.21.19.37.19l.47-.74c.13-.11.29-.25.47-.42s.36-.33.54-.49c.2-.18.41-.37.61-.57.14,0,.25.06.34.17s.13.24.13.37l-.13.27c-.09.18-.18.32-.27.4-.16.45-.36.84-.61,1.17-.25.33-.52.64-.81.94-.29.3-.59.61-.89.93-.3.32-.59.68-.86,1.08l-.74,1.05c0,.2-.06.41-.19.62-.12.21-.27.38-.44.51s-.35.18-.54.17c-.19-.01-.34-.14-.46-.39-.14-.41-.2-.81-.2-1.2s.03-.78.1-1.15c.07-.37.13-.73.2-1.06.07-.34.1-.66.1-.98v-1.89c0-.11-.08-.19-.24-.24-.09-.02-.17-.03-.24-.03s-.24.2-.51.59c-.27.39-.58.84-.93,1.35-.35.51-.7,1.02-1.06,1.54-.36.52-.65.89-.88,1.11-.07.09-.17.22-.32.39-.15.17-.3.33-.47.49-.17.16-.35.3-.56.42s-.38.19-.54.19c-.32,0-.57-.11-.78-.34-.2-.22-.36-.49-.47-.79-.11-.3-.2-.61-.25-.91-.06-.3-.08-.52-.08-.66l-.1-2.43.47-3.95c0-.07.03-.22.1-.47s.16-.52.27-.81.24-.58.39-.86c.15-.28.3-.51.46-.69.65-.61,1.28-1.35,1.89-2.23.29-.4.57-.7.84-.88.27-.18.54-.32.81-.42.27-.1.54-.18.81-.24.27-.06.57-.17.91-.35.13,0,.31-.07.52-.22.21-.15.41-.29.59-.42h1.52l.64-.3ZM312.53,133.69c-.4.34-.79.73-1.15,1.16s-.68.88-.94,1.33c-.27.45-.48.87-.64,1.27-.16.39-.24.7-.24.93,0,.11-.01.32-.03.62s-.01.62.03.95.13.62.25.88c.12.26.34.39.66.39.29,0,.64-.26,1.03-.78.39-.52.76-1.1,1.11-1.76.35-.65.64-1.26.88-1.82.24-.56.35-.9.35-1.01,0-.09.01-.31.03-.66.02-.35,0-.69-.05-1.01-.06-.33-.18-.56-.37-.71-.19-.15-.5-.07-.93.22Z"/>
      <path class="cls-4" d="M331.7,116.71c.65,0,1.06.2,1.23.61.17.4.25.87.25,1.38v.64c0,.32-.1.65-.3,1.01-.2.36-.45.69-.74,1s-.6.56-.93.78c-.33.21-.6.32-.83.32-.29,0-.54-.04-.74-.13s-.39-.13-.57-.13c-.47,0-.96.15-1.47.44s-.83.77-.96,1.42c-.18.34-.27.64-.25.89.01.26-.03.52-.12.79-.2.47-.41,1.09-.62,1.84-.21.75-.32,1.46-.32,2.11,0,.07-.02.18-.05.34s-.07.33-.12.51c-.05.2-.09.42-.13.64v1.05l-.47,2.73c.04.32.04.68-.02,1.1-.06.42-.14.89-.25,1.43s-.22,1.13-.34,1.76c-.11.63-.19,1.29-.24,1.99,0,.13.03.35.08.66s.16.46.32.46c.2,0,.42-.07.66-.2.24-.13.47-.3.69-.51.22-.2.46-.42.69-.64.24-.22.46-.43.66-.61.43-.43.87-.82,1.32-1.17.45-.35.89-.52,1.32-.52l.2.27c0,.25-.07.53-.2.86-.14.33-.3.66-.51,1-.2.34-.43.65-.68.94-.25.29-.48.52-.71.68-.45.31-.82.7-1.1,1.15-.28.45-.66.91-1.13,1.38-.16.34-.4.61-.73.83-.33.21-.65.41-.96.59-.34.13-.75.31-1.23.52-.48.21-.89.32-1.23.32-.25,0-.42-.04-.52-.12-.1-.08-.16-.2-.19-.35-.02-.16-.02-.36.02-.61s.05-.55.05-.91v-2.16c0-.31.06-.63.19-.95.12-.31.19-.62.19-.91v-.68c0,.18.02.1.07-.25.04-.35.1-.87.17-1.55s.12-1.5.17-2.45c.04-.95.07-1.94.07-2.97,0-.13.06-.33.19-.59.12-.26.19-.47.19-.62v-1.22c.13-.65.24-1.29.3-1.92.07-.63.14-1.25.2-1.86.07-.61.16-1.22.27-1.84.11-.62.29-1.24.54-1.87.18-.61.47-1.19.88-1.76s.76-1.17,1.08-1.82c.16-.29.33-.56.52-.81.19-.25.43-.45.73-.61.31-.52.75-.93,1.3-1.23.55-.3,1.09-.46,1.6-.46h2.53Z"/>
    </g>
    <g>
      <path class="cls-4" d="M442.45,139.09c.24,0,.53,0,.88.03.35.02.64.08.87.18.25,0,.42.1.49.3.08.2.17.43.29.68.07.07.15.16.24.28.09.12.18.24.25.37.08.13.14.26.19.39.05.13.08.25.08.35l-.2,2.26c0,.47-.1,1-.3,1.57-.2.58-.5,1.09-.89,1.55-.14.14-.23.28-.29.44-.06.16-.12.33-.18.49-.06.17-.13.34-.2.52-.08.18-.18.35-.32.52-.1.12-.22.26-.34.43-.13.17-.26.34-.41.52s-.3.34-.46.48c-.16.14-.33.25-.49.32-.25.14-.47.25-.63.36-.17.1-.32.19-.46.25-.14.07-.28.11-.42.14-.14.02-.3.04-.47.04-.25,0-.49-.06-.71-.18s-.41-.27-.57-.47c-.16-.19-.29-.41-.39-.66-.1-.25-.15-.49-.15-.75v-1.7c0-.1-.03-.19-.1-.28-.07-.08-.1-.32-.1-.71-.02-.49.1-1.08.36-1.77.25-.69.55-1.37.9-2.04.35-.67.69-1.26,1.04-1.77.35-.52.61-.83.8-.95s.34-.25.47-.39c.13-.14.25-.27.37-.39s.24-.22.37-.29c.13-.08.29-.11.49-.11ZM442.58,141.99c-.27,0-.54.11-.82.34-.28.23-.54.49-.77.79s-.45.59-.63.89c-.19.3-.31.51-.38.65l-.25.96c-.07.24-.12.46-.16.68-.04.22-.06.36-.06.41v.48c.07.05.13.15.18.3s.11.3.19.46c.08.15.16.29.27.41.1.12.25.18.43.18.34-.15.65-.3.94-.46.24-.14.47-.28.7-.43.23-.15.38-.3.47-.46.1-.24.22-.52.34-.84.13-.32.25-.62.37-.91-.03-.14,0-.27.11-.41.11-.13.16-.26.16-.38v-.71c0-.08-.02-.23-.06-.44-.04-.21-.11-.43-.2-.66-.09-.23-.21-.43-.34-.6-.14-.17-.29-.25-.46-.25Z"/>
      <path class="cls-4" d="M454.14,128.72c.25-.07.5-.05.74.04.24.09.45.23.63.41.19.18.33.38.44.61.11.23.16.44.16.65,0,.1-.03.25-.09.43-.06.19-.14.38-.23.57s-.18.37-.27.53c-.08.16-.15.26-.2.29-.12.12-.24.2-.37.24-.13.04-.25.07-.37.08s-.24.02-.35.04c-.12.02-.23.06-.33.13-.14.05-.3.1-.51.14-.2.04-.41.1-.61.18-.2.08-.4.18-.6.32-.19.14-.35.33-.47.58-.05.19-.14.53-.25,1.04s-.24,1.03-.35,1.57c-.14.64-.28,1.34-.43,2.1,0,.19.05.33.14.43.09.1.21.19.34.25s.28.11.43.13c.15.02.29.03.41.03h.79c.05,0,.11.02.19.05.08.03.16.07.24.1.08.05.18.09.28.13v.51c0,.05-.04.14-.11.27-.08.13-.17.25-.28.38s-.22.24-.33.33-.2.14-.27.14h-1.19c-.49,0-.82.08-.98.23-.16.15-.24.41-.24.76-.03.1-.07.19-.1.28-.03.09-.06.16-.08.24-.02.08-.03.14-.03.19,0,.59-.03,1.15-.1,1.66-.07.52-.1.88-.1,1.1,0,.07-.02.23-.06.49-.04.26-.09.55-.15.86-.06.31-.11.61-.15.9-.04.29-.06.49-.06.61l-.08,1.22c0,.05-.01.14-.04.28-.02.13-.05.28-.08.43s-.05.3-.06.44c-.02.14-.03.25-.03.32,0,.29-.01.51-.04.67s-.06.29-.1.39c-.04.1-.08.19-.1.27-.03.08-.04.17-.04.29,0,.07-.03.22-.09.44-.06.23-.13.48-.2.75-.08.27-.16.53-.25.79-.09.25-.17.44-.24.56-.2.25-.37.48-.51.67-.14.19-.27.49-.41.88-.1.05-.27.19-.52.42-.25.23-.51.47-.8.72-.29.25-.57.48-.85.68-.28.2-.52.3-.72.3-.19,0-.33.01-.44.04-.11.03-.22.06-.32.1-.1.04-.2.08-.29.1-.09.03-.22.04-.37.04h-.2c-.1,0-.19,0-.27-.03-.08-.02-.13,0-.16.03-.07.03-.14.05-.22.06-.08,0-.16.01-.27.01-.08,0-.21,0-.38-.03-.17-.02-.34-.03-.52-.05-.18-.02-.34-.03-.49-.05-.15-.02-.25-.03-.3-.03-.07,0-.2-.02-.41-.06-.2-.04-.41-.11-.62-.2s-.4-.2-.56-.33c-.16-.13-.24-.28-.24-.47,0-.05.04-.15.11-.29.08-.14.16-.3.27-.47.1-.17.2-.33.3-.48.1-.15.18-.25.23-.3,0-.07.07-.17.22-.32.14-.14.32-.28.52-.42.2-.14.41-.26.63-.37s.4-.16.53-.16h.43s.08.08.15.13c.03.03.08.07.14.11.06.04.11.08.14.11l.63.2c.12.03.23.06.33.08.08.03.18.05.28.06.1,0,.18.01.23.01h.56c.36,0,.66-.08.93-.24.26-.16.52-.38.77-.67.08-.02.18-.17.28-.46.1-.29.21-.63.33-1.04.12-.41.23-.85.34-1.33.11-.48.21-.94.3-1.37.09-.43.16-.81.22-1.13s.08-.52.08-.61v-.48s.02-.18.05-.43c.03-.25.08-.56.14-.93.06-.36.13-.76.2-1.2.08-.44.15-.87.22-1.29.07-.42.13-.81.2-1.17.07-.36.13-.63.18-.84,0-.12,0-.25.03-.39.02-.14.04-.27.08-.39.03-.14.07-.27.1-.41,0-.22-.1-.38-.29-.48-.19-.1-.41-.18-.66-.23-.25-.05-.47-.11-.66-.18-.19-.07-.29-.19-.29-.38,0-.12.01-.24.04-.37.02-.13.1-.24.24-.34.1-.12.25-.2.43-.24.19-.04.37-.08.56-.1s.36-.07.52-.14c.16-.07.27-.19.34-.36.07-.08.13-.25.2-.48.07-.24.13-.52.18-.84.05-.32.1-.67.15-1.04.05-.37.09-.72.13-1.05.03-.33.06-.63.08-.89.02-.26.03-.45.03-.57.08-.14.18-.32.28-.55.1-.23.15-.44.15-.65s.05-.41.15-.62c.1-.21.22-.42.37-.62.14-.2.3-.39.46-.56.16-.17.31-.3.44-.41.24-.24.43-.46.58-.66.15-.2.36-.42.61-.66.12-.05.23-.12.33-.22.1-.09.21-.18.32-.27.11-.08.23-.16.36-.22.13-.06.28-.09.47-.09h.43Z"/>
    </g>
    <g>
      <path class="cls-6" d="M485.97,173.45l-8.45-12.72c-2.16-3.26-5.81-5.21-9.72-5.21-.05,0-.11,0-.16,0-3.97.05-7.63,2.12-9.73,5.48-.64,1.02-1.09,1.75-3.12,8.15-.88-.21-1.79-.33-2.73-.33h-15.29c-2.81,0-5.35.19-7.69.58-.17-2.83-1.34-5.38-3.17-7.31.09-4.94-1.61-10.56-5.1-16.82-.04-.07-.07-.13-.11-.2-4.48-7.67-10.04-9.28-13.91-9.28-4.58,0-8.84,2.33-11.67,6.4-.07.1-.13.19-.19.29-1.61,2.47-2.6,4.88-3.39,6.82-.53,1.29-.98,2.4-1.43,3.08-.11.17-.22.35-.33.52-.19.31-.58.86-.96,1.38-.8,1.11-1.8,2.5-2.68,4.17-.02.04-.04.08-.06.12-1.27,2.49-1.74,5.21-1.42,7.81-.66-1.13-1.33-2.11-1.91-2.94-.37-.53-.75-1.08-.93-1.4-.1-.18-.21-.36-.32-.53-.44-.69-.88-1.81-1.38-3.1-.76-1.95-1.71-4.37-3.28-6.87-.06-.1-.13-.2-.19-.29-2.81-4.19-7.11-6.6-11.79-6.6-3.81,0-9.3,1.57-13.84,9.05-.04.06-.08.13-.12.19-1.82,3.13-3.17,6.11-4.07,8.92h-8.87c-2.14-2.66-5.42-4.37-9.1-4.37h-20.68c-.52,0-1.03.05-1.54.11-.5-.07-1.01-.11-1.54-.11h-20.61c-6.44,0-11.67,5.22-11.67,11.67v1.29c-2-1.61-4.54-2.58-7.31-2.58h-20.61c-.92,0-1.81.11-2.66.31-.85-.2-1.75-.31-2.66-.31h-17.97c2.49-5.63,2.07-12.93-1.28-21.79-.03-.07-.05-.14-.08-.21-3.96-9.89-10.7-11.37-14.37-11.37-3.89,0-7.62,1.69-10.51,4.77-.08.08-.16.17-.24.26-1.96,2.21-3.29,4.45-4.36,6.24-.36.61-.7,1.17-1.01,1.66-.25-.43-.52-.9-.8-1.41-1.02-1.83-2.28-4.1-4.18-6.36-.08-.09-.15-.18-.23-.27-2.9-3.26-6.72-5.06-10.75-5.06-3.57,0-10.17,1.42-14.31,10.96-.03.07-.06.14-.09.21-2.87,6.98-3.84,13.03-2.94,18.08-2.91,1.84-5.34,4.1-7.23,6.73-2.49,3.44-3.88,7.23-4.13,11.25-.27,4.23.88,8.47,3.39,12.59,2.01,3.3,4.94,6.41,8.7,9.24.56.42,1.16.79,1.77,1.1v7.81c0,6.44,5.22,11.67,11.67,11.67h20.68c1.46,0,2.85-.27,4.13-.75,3.92,2.14,8.51,3.26,13.58,3.26,2.17,0,4.41-.2,6.77-.59-2.62,2.26-4.71,5.12-5.98,8.67-2.61,7.9-1.16,17.02-1.53,25.43.08,7.53-.21,12.05,3.96,17.18,3.95,4.61,10.3,8.26,15.85,10.26,3.3,1.11,6.76,1.19,10.24,1.26,5.08.04,11.73.01,16.24.01,8-.03,15.56.08,23.59-.06,4.97-.2,9.52-.77,13.86-.66,14.62,1.04,29.88.7,44.71.71,6.53,0,14.15.04,21.68-.02,3.69-.06,7.44-.28,10.72-1.16,5.52-1.17,9.91-4.02,13.1-7.83,1.28,1.1,2.76,1.93,4.35,2.45,1.41,1.33,3.1,2.34,4.96,2.94,2.35,2.23,5.54,3.57,8.99,3.57.63,0,1.26-.06,1.87-.15.59.57,1.22,1.13,1.89,1.62,3.28,2.39,6.66,3.1,9.25,3.45,1.51.2,3.01.31,4.47.32h.08c1.46,0,2.96-.11,4.47-.32,2.58-.35,5.97-1.06,9.25-3.45.68-.49,1.29-1.04,1.88-1.61.59.08,1.2.14,1.8.14,3.45,0,6.64-1.35,8.99-3.57,1.86-.6,3.56-1.62,4.96-2.94,2.79-.91,5.23-2.77,6.89-5.34,2.36-3.66,2.75-8.18,1.07-12.15-.15-.37-.32-.73-.51-1.08-.69-1.28-1.25-2.33-1.7-3.19-.67-1.26-1.46-2.75-2.48-4.15.1-1.98-.06-4.01-.52-6.05l-.06-.27c-.12-.53-.26-1.19-.48-1.95-.52-1.82-1.26-3.63-2.17-5.42,3.29-7.63,3.38-14.43.28-20.23,1.92-.84,3.7-1.85,5.28-3.09.98-.76,1.88-1.59,2.7-2.48,7.25-2.19,17.39-6.84,22.45-16.33,2.2-4.13,3.1-8.31,3.22-12.27.69-.54,1.34-1.17,1.91-1.88,3.18-3.96,3.44-9.53.62-13.76Z"/>
      <path class="cls-2" d="M469.93,167.18c-.55.89-4.64,14.44-4.64,14.44l5.68-4.58,7.4,2.86-8.45-12.72Z"/>
      <g>
        <path class="cls-1" d="M214.18,182.6c-.18,4-1.94,7.14-5.26,9.42.96.77,1.67,1.71,2.15,2.8s.73,2.09.75,3c.02.91.15,1.77.38,2.59.23.82.59,1.43,1.09,1.84.5.41,1.42.57,2.76.48,1.34-.09,3.17-.5,5.49-1.23v12.56c-11.38,3.32-19.07,1.73-23.07-4.78-.77-1.18-1.26-2.56-1.47-4.13-.21-1.57-.24-2.96-.1-4.16.14-1.21.15-2.38.03-3.52-.11-1.14-.47-1.96-1.06-2.46-1.59-.18-2.96-.45-4.1-.82h-1.71v6.69l3.48,2.05v10.31h-20.68v-10.31l3.48-2.05v-25.53c-1.23.27-2.23.66-3,1.16-.77.5-1.29,1.07-1.54,1.71-.25.64-.08,1.33.51,2.08.59.75,1.61,1.51,3.07,2.29l-8.94,12.42c-2.59-1.96-4.52-3.96-5.77-6.01-1.25-2.05-1.82-3.97-1.71-5.77.11-1.8.76-3.52,1.95-5.15,1.18-1.64,2.77-3.03,4.78-4.16,2-1.14,4.4-2.05,7.2-2.73,2.8-.68,5.77-1.02,8.91-1.02.55,0,1.56-.01,3.04-.03,1.48-.02,2.73-.04,3.75-.07,1.02-.02,2.38,0,4.06.07,1.68.07,3.14.16,4.37.27,1.23.11,2.64.31,4.23.58,1.59.27,2.96.61,4.1,1.02,1.14.41,2.29.93,3.45,1.57,1.16.64,2.12,1.37,2.87,2.18.75.82,1.35,1.81,1.81,2.97.45,1.16.68,2.45.68,3.86ZM190.09,175.5v12.42c.59.59,1.19.99,1.81,1.19.61.2,1.21.18,1.78-.07.57-.25,1.07-.67,1.5-1.26.43-.59.76-1.41.99-2.46.23-1.05.32-2.23.27-3.55-.09-3.23-2.21-5.32-6.35-6.28Z"/>
        <path class="cls-2" d="M241.83,190.79l-3.48,2.05v8.05c.23,1.91.81,3.45,1.74,4.61.93,1.16,1.98,1.8,3.14,1.91,1.16.11,2.3-.03,3.41-.44,1.11-.41,2.05-1.18,2.8-2.32.75-1.14,1.13-2.39,1.13-3.75v-8.05l-3.41-2.05v-10.31h20.61v10.31l-3.48,2.05v8.05l3.48,1.98v10.37h-23.34c-.77,0-1.89.02-3.34.07-1.87,0-3.62.01-5.26.03-1.64.02-3.14-.17-4.5-.58-1.36-.41-2.55-1.03-3.55-1.88-1-.84-1.78-2.09-2.32-3.75-.55-1.66-.82-3.74-.82-6.25v-8.05l-3.48-2.05v-10.31h20.68v10.31Z"/>
        <path class="cls-1" d="M286.74,180.48v-10.37h20.61v10.37l-3.41,1.98v18.43l3.41,1.98v10.37h-23.48c-5.23,0-8.99-2.07-11.26-6.21-2.05-3.64-2.43-7.69-1.16-12.15,1.32-4.69,4.03-8.08,8.12-10.17,3.09-1.59,6.64-2.18,10.65-1.77v-.48l-3.48-1.98ZM290.22,200.89v-14.4c-3.41.23-5.76,2.03-7.03,5.39-1,2.73-1,5.3,0,7.71.96,2.37,2.46,3.25,4.5,2.66.09,0,.18-.02.27-.07l2.25-1.3Z"/>
        <path class="cls-2" d="M331.1,180.48l-3.48,1.98v9.62l9.21-5.26-3.48-2.05v-10.31h20.34v10.31l-11.19,6.42c3,.36,5.49,1.12,7.47,2.25,1.98,1.14,2.97,2.69,2.97,4.64v2.8l3.41,1.98v10.37h-19.93v-10.37l3.48-1.98c0-1.96-.36-3.34-1.09-4.16-.73-.82-2.18-1.25-4.37-1.3l-6.83-.07v5.53l3.48,1.98v10.37h-20.68v-10.37l3.48-1.98v-18.43l-3.48-1.98v-10.37h20.68v10.37Z"/>
        <path class="cls-1" d="M359.43,202.87l3.48-1.98v-8.05l-3.48-2.05v-10.31h20.68v10.31l-3.48,2.05v8.05l3.48,1.98v10.37h-20.68v-10.37Z"/>
        <path class="cls-2" d="M399.08,180.48v-10.37h20.61v10.37l-3.41,1.98v18.43l3.41,1.98v10.37h-23.48c-5.23,0-8.99-2.07-11.26-6.21-2.05-3.64-2.43-7.69-1.16-12.15,1.32-4.69,4.03-8.08,8.12-10.17,3.09-1.59,6.64-2.18,10.65-1.77v-.48l-3.48-1.98ZM402.56,200.89v-14.4c-3.41.23-5.76,2.03-7.03,5.39-1,2.73-1,5.3,0,7.71.96,2.37,2.46,3.25,4.5,2.66.09,0,.18-.02.27-.07l2.25-1.3Z"/>
        <path class="cls-1" d="M212.66,165.03c2.38-3.27.41-10.14-1-13.87-1.27-3.17-3.14-5.51-5.56-2.94-2.49,2.81-3.7,6.28-6.29,9.15-1.25,1.54-2.91,2.94-4.06,4.51-1.93,2.7,3.77,3.06,6.32,3.66,3.34.41,8.02,1.99,10.52-.44l.06-.07Z"/>
        <path class="cls-1" d="M171.07,164.72c-2.29-3.34-.13-10.15,1.39-13.84,1.36-3.13,3.29-5.42,5.64-2.79,2.41,2.88,3.52,6.38,6.03,9.32,1.21,1.58,2.82,3.02,3.93,4.62,1.85,2.75-3.85,2.96-6.42,3.49-3.35.31-8.07,1.77-10.51-.73l-.06-.07Z"/>
        <path class="cls-2" d="M415.88,164.52c1.87-3.58-1.08-10.1-3.02-13.58-1.72-2.95-3.91-4.99-5.93-2.1-2.05,3.15-2.74,6.75-4.88,9.97-1.01,1.71-2.45,3.33-3.36,5.06-1.51,2.95,4.18,2.48,6.79,2.7,3.37-.09,8.23.8,10.35-1.98l.05-.08Z"/>
        <path class="cls-1" d="M359.98,173.26c-1.81-3.62,1.25-10.08,3.25-13.52,1.77-2.92,4-4.92,5.96-2,2,3.18,2.62,6.8,4.71,10.06.98,1.73,2.39,3.37,3.27,5.11,1.46,2.98-4.22,2.41-6.83,2.58-3.36-.14-8.24.66-10.31-2.15l-.05-.08Z"/>
        <path class="cls-2" d="M452.52,201.84c.31-.43,3.15-.9,3.69-1.09,3.83-1.31,7.41-3.25,9.95-6.47,2.31-2.93,3.92-6.52,4.34-10.24.16-1.42.17-2.86.15-4.29-.01-.75-.04-1.51-.07-2.26-.02-.49.17-1.63-.06-2.06,1.82,3.4,5.86,12.52,1.64,20.43-5.3,9.94-21.72,12.05-21.72,12.05,0,0,2.07-6.06,2.08-6.07Z"/>
        <path class="cls-1" d="M440.38,202.66c-.59-.09-1.55-.22-2.87-.38-1.32-.16-2.34-.3-3.07-.41-.73-.11-1.68-.3-2.87-.55-1.18-.25-2.13-.51-2.83-.78-.71-.27-1.48-.66-2.32-1.16-.84-.5-1.49-1.05-1.94-1.64-.46-.59-.85-1.31-1.19-2.15-.34-.84-.51-1.79-.51-2.83,0-1.37.08-2.54.24-3.52.16-.98.56-2.06,1.19-3.24.64-1.18,1.51-2.15,2.63-2.9,1.11-.75,2.71-1.38,4.78-1.88,2.07-.5,4.54-.75,7.41-.75h15.29v12.56h-10.31c-.05-1-.1-1.82-.17-2.46-.07-.64-.19-1.35-.38-2.15-.18-.8-.43-1.43-.75-1.91-.32-.48-.78-.88-1.4-1.19-.61-.32-1.33-.48-2.15-.48-1.64,0-2.97.35-3.99,1.06-1.02.71-1.63,1.51-1.81,2.42-.18.91.05,1.83.68,2.76.64.93,1.64,1.6,3,2.01.77.14,1.88.28,3.31.44,1.43.16,2.59.31,3.48.44.89.14,1.94.33,3.17.58,1.23.25,2.21.57,2.93.96.73.39,1.47.87,2.22,1.43.75.57,1.3,1.29,1.64,2.15.34.86.51,1.87.51,3,0,3.73-1.39,6.68-4.16,8.84-2.78,2.16-6.8,3.24-12.08,3.24-1.55,0-2.98-.08-4.3-.24-1.32-.16-2.64-.43-3.96-.82-1.32-.39-2.42-.91-3.31-1.57-.89-.66-1.68-1.49-2.39-2.49-.71-1-1.12-2.18-1.23-3.55-.11-1.37-.03-2.96.24-4.78l15.02,3.34c-.77,1.37-.9,2.65-.38,3.86.52,1.21,1.44,1.74,2.76,1.6,1.5-.14,2.55-.67,3.14-1.6.59-.93.59-1.92,0-2.97-.59-1.05-1.68-1.82-3.28-2.32Z"/>
      </g>
      <g>
        <path class="cls-2" d="M258.75,277.02h-27.03l-10.87-6.71v-29.64c0-.8.23-1.63.71-2.51.47-.87,1.25-1.75,2.33-2.65,1.08-.89,2.71-1.62,4.87-2.19,2.16-.56,4.73-.85,7.69-.85,3.15.1,6.1.52,8.86,1.27,2.75.75,5.1,1.73,7.06,2.93,1.95,1.2,3.49,2.63,4.62,4.3,1.13,1.67,1.72,3.42,1.76,5.26s-.56,3.79-1.83,5.86c-1.27,2.07-3.22,4.09-5.86,6.07l-8.75-9.67c1.74-1.32,2.88-2.81,3.42-4.48.54-1.67.29-3.16-.74-4.48-1.04-1.32-2.75-2.09-5.15-2.33-1.18-.09-2.27.25-3.28,1.02-1.01.78-1.52,1.9-1.52,3.35v22.94l2.96,1.83h7.98l2.05-3.6h10.73v14.26Z"/>
        <path class="cls-2" d="M261.85,243.14v-10.73h21.39v10.73l-3.6,2.05v19.06l3.6,2.05v10.73h-21.39v-10.73l3.6-2.05v-19.06l-3.6-2.05Z"/>
        <path class="cls-2" d="M307.73,253.8l-3.6,2.12v8.33c.24,1.98.83,3.56,1.8,4.76.96,1.2,2.05,1.86,3.25,1.98,1.2.12,2.38-.04,3.53-.46,1.15-.42,2.12-1.22,2.89-2.4.78-1.18,1.16-2.47,1.16-3.88v-8.33l-3.53-2.12v-10.66h21.31v10.66l-3.6,2.12v8.33l3.6,2.05v10.73h-24.14c-.8,0-1.95.02-3.46.07-1.93,0-3.74.01-5.43.04-1.69.02-3.25-.18-4.66-.6s-2.64-1.07-3.67-1.94c-1.04-.87-1.84-2.16-2.4-3.88-.56-1.72-.85-3.87-.85-6.46v-8.33l-3.6-2.12v-10.66h21.39v10.66Z"/>
        <path class="cls-2" d="M338,243.14v-10.73h21.39v10.73l-3.6,2.05v.49c6.87-.71,12.21,1.27,16.02,5.93,3.01,3.62,4.35,7.83,4.02,12.63-.33,4.71-2.19,8.21-5.58,10.52-2.21,1.51-4.85,2.26-7.9,2.26h-24.35v-10.73l3.6-2.05v-19.06l-3.6-2.05ZM355.79,249.35v14.89l2.33,1.34c2.16.75,3.79-.07,4.87-2.47,1.08-2.45,1.13-5.1.14-7.98-1.22-3.43-3.53-5.34-6.92-5.72-.14,0-.28-.02-.42-.07Z"/>
      </g>
      <g>
        <path class="cls-1" d="M418.32,230.46c3.99,0,7.22-1.66,7.22-3.7s-3.23-3.7-7.22-3.7-7.22,1.66-7.22,3.7,3.23,3.7,7.22,3.7ZM418.32,225.23c1.94,0,3.5.69,3.5,1.54s-1.57,1.54-3.5,1.54-3.5-.69-3.5-1.54,1.57-1.54,3.5-1.54Z"/>
        <path class="cls-1" d="M388.74,269.71c7.5-13.83-.67-2.06,17.35-.96.51,0,1.1.15.75.74-.93,1.58-1.7,3.18-2.59,4.76-.79,1.25-1.43,3.07-2.44,3.98-1.12.97-3.04.3-3.32-1.14-.36-1.46,1.01-2.63,1.35-3.91,0-.39-.46-.61-.8-.66-.48-.02-.6.38-.87.83-.3.52-.55,1.04-.87,1.5-.92,1.44-3.27,1.1-3.75-.55-.3-1.07.17-1.75.73-2.79.17-.35.57-.88.33-1.21-.26-.36-.9-.59-1.23-.14-.64.92-1.07,2.33-2.33,2.58-1.66.42-3.05-1.42-2.36-2.95l.04-.09Z"/>
        <path class="cls-1" d="M447.33,269.71c-7.5-13.83.67-2.06-17.35-.96-.51,0-1.1.15-.75.74.93,1.58,1.7,3.18,2.59,4.76.79,1.25,1.43,3.07,2.44,3.98,1.12.97,3.04.3,3.32-1.14.36-1.46-1.01-2.63-1.35-3.91,0-.39.46-.61.8-.66.48-.02.6.38.87.83.3.52.55,1.04.87,1.5.92,1.44,3.27,1.1,3.75-.55.3-1.07-.17-1.75-.73-2.79-.17-.35-.57-.88-.33-1.21.26-.36.9-.59,1.23-.14.64.92,1.07,2.33,2.33,2.58,1.66.42,3.05-1.42,2.36-2.95l-.04-.09Z"/>
        <path class="cls-1" d="M397.69,228.08c1.61,2.89,3.98,3.79,6.75,4.24.84.14.98,1.35.32,1.89l-6.58,5.48c-.57.47-1.43.27-1.73-.4-1.79-4.1-2.46-7.92-.61-11.15.39-.69,1.46-.76,1.85-.06Z"/>
        <path class="cls-1" d="M438.21,228.08c-1.61,2.89-3.98,3.79-6.75,4.24-.84.14-.98,1.35-.32,1.89l6.58,5.48c.57.47,1.43.27,1.73-.4,1.79-4.1,2.46-7.92.61-11.15-.39-.69-1.46-.76-1.85-.06Z"/>
        <path class="cls-1" d="M441.57,253.48c-.12-.53-.22-1.05-.37-1.57-.62-2.15-1.63-4.17-2.85-6.04-.42-.64-.86-1.26-1.33-1.86-2.85-3.71-6.61-7.03-11.02-8.71-.36-.14-.72-.26-1.09-.38-1.13-.36-2.27-.66-3.44-.85-1.12-.17-2.26-.28-3.39-.29-1.14.01-2.27.12-3.39.29-1.17.18-2.32.49-3.44.85-.37.12-.73.24-1.09.38-4.41,1.69-8.17,5-11.02,8.71-.46.61-.91,1.23-1.33,1.86-1.23,1.87-2.23,3.88-2.85,6.04-.15.52-.26,1.05-.37,1.57-.76,3.43-.03,7.55,3.02,9.67,1.57,1.1,3.46,1.66,5.33,1.99,2.28.41,4.66.47,6.97.36.53-.02,1.12-.12,1.53.29.65.64-.24,1.99-.5,2.63-.77,1.85-1.56,3.69-2.15,5.62-.39,1.26-.79,2.59-.65,3.92.19,1.74,1.21,3.26,2.62,4.29,1.28.93,2.76,1.25,4.3,1.46,1.01.14,2.02.21,3.04.22,1.01,0,2.03-.08,3.04-.22,1.54-.21,3.01-.52,4.3-1.46,1.41-1.03,2.44-2.54,2.62-4.29.14-1.33-.26-2.66-.65-3.92-.6-1.93-1.39-3.76-2.15-5.62-.27-.64-1.15-1.99-.5-2.63.42-.41,1-.32,1.53-.29,2.31.11,4.68.05,6.97-.36,1.87-.34,3.76-.9,5.33-1.99,3.05-2.12,3.78-6.24,3.02-9.67ZM404,253.36c-1.52-2.07-2.27-7.32.25-7.21,1.76.3,3.44,1.38,5.18,2.14,1.68.9,4.92,2.07,5.66,3.25l.03.07c.58,1.83-3.15,4.1-5.82,4.3-2.07.19-4.16-.82-5.31-2.55ZM432.05,253.36c-1.15,1.74-3.23,2.74-5.31,2.55-2.67-.19-6.4-2.47-5.82-4.3l.03-.07c.74-1.18,3.98-2.36,5.66-3.25,1.74-.77,3.42-1.84,5.18-2.14,2.52-.11,1.77,5.14.25,7.21Z"/>
      </g>
    </g>
    <g>
      <path class="cls-4" d="M368.34,118.1c.76,0,1.27.21,1.52.64.25.43.37.88.37,1.35,0,.07-.05.17-.15.3-.1.13-.23.27-.37.4-.15.13-.29.25-.44.35-.15.1-.26.15-.35.15h-.57c-.16,0-.29.01-.41.03-.29.05-.5.12-.61.24-.34,0-.59.07-.76.22-.17.15-.3.33-.39.56-.09.23-.14.47-.15.74s-.02.52-.02.74v4.69c0,.25.03.44.1.57.07.14.12.26.17.37.11.13.17.27.19.41s.02.28.02.44l-.1,1.11c0,.32.04.62.13.93.09.3.13.52.13.66l.41.94v.95c0,.41.2.69.59.84s.82.29,1.28.39c.46.1.89.21,1.28.34.39.12.59.36.59.69,0,.68-.32,1.01-.94,1.01h-1.22c-.16,0-.33,0-.51.02-.18.01-.36.07-.54.19l-2.8-.2h-1.59c-.07,0-.23.01-.47.03-.25.02-.51.04-.79.07-.28.02-.55.04-.79.07-.25.02-.4.03-.47.03-.34,0-.58-.02-.73-.07-.15-.04-.22-.21-.22-.51,0-.31.08-.66.25-1.03.17-.37.49-.56.96-.56h1.96c.16,0,.29-.05.39-.15.1-.1.17-.22.2-.37.03-.15.06-.29.07-.44.01-.15.02-.26.02-.35,0-.29-.06-.64-.19-1.05-.12-.4-.19-.69-.19-.84v-3.17c0-.09-.02-.24-.05-.46s-.08-.43-.15-.64c-.07-.21-.14-.4-.22-.56-.08-.16-.16-.24-.25-.24-.05,0-.14.1-.29.29-.15.19-.32.44-.51.74-.19.3-.41.64-.64,1.01-.24.37-.46.74-.68,1.1-.21.36-.41.69-.59.98-.18.29-.32.52-.41.68-.18.14-.33.32-.46.54s-.23.46-.32.69c-.09.24-.17.47-.24.71-.07.24-.14.43-.2.59-.18.32-.35.59-.52.83-.17.24-.31.43-.42.59-.18.38-.3.6-.37.66s-.19.08-.37.08c-.27,0-.44-.09-.52-.27-.08-.18-.22-.44-.42-.78l-.27-2.06c-.16-.41-.34-.82-.54-1.25s-.39-.86-.56-1.3c-.17-.44-.31-.87-.42-1.3-.11-.43-.17-.83-.17-1.22v-.37c0-.09-.03-.24-.1-.46-.07-.21-.15-.43-.24-.64s-.19-.4-.3-.56c-.11-.16-.21-.24-.3-.24-.07,0-.16.1-.27.3-.11.2-.22.44-.32.71-.1.27-.19.55-.25.83-.07.28-.1.49-.1.62v2.33c-.09.59-.18,1.11-.27,1.59-.07.41-.13.8-.19,1.18-.06.38-.08.62-.08.71,0,.63.11,1.06.34,1.28.22.23.47.37.74.44.27.07.52.14.74.2.22.07.34.27.34.61,0,.25-.05.43-.15.56-.1.12-.22.21-.35.27-.14.06-.27.09-.41.1s-.24.02-.3.02h-1.32l-3.21-.57h-1.22c-.07.04-.15.08-.24.1-.13.07-.28.1-.44.1h-.64c-.07,0-.17-.01-.3-.03-.13-.02-.27-.06-.4-.12-.14-.06-.25-.12-.35-.19-.1-.07-.15-.15-.15-.24,0-.22.08-.42.25-.59.17-.17.36-.31.57-.42.21-.11.42-.19.62-.24.2-.04.34-.07.41-.07h.68c.07,0,.2-.01.41-.03s.42-.06.64-.1c.25-.04.53-.09.84-.13.16-.16.31-.43.47-.83.16-.39.29-.8.41-1.22s.21-.8.29-1.15.12-.57.12-.66v-1.59c.07-.07.12-.17.17-.32s.08-.3.1-.46c.02-.18.03-.36.03-.54v-1.52c0-.09.02-.22.05-.4s.07-.36.12-.54c.07-.2.13-.42.2-.64v-.95c.04-.13.09-.27.13-.41.04-.11.08-.24.1-.37.02-.14.03-.28.03-.44v-.74c0-.07-.03-.22-.1-.46-.07-.24-.15-.48-.24-.73-.09-.29-.19-.62-.3-.98-.11-.16-.27-.3-.47-.44-.2-.13-.39-.27-.57-.4-.14-.11-.3-.22-.49-.32-.19-.1-.34-.25-.46-.46v-.37c0-.14.06-.24.17-.3s.25-.12.41-.17c.16-.04.35-.07.57-.07h.84c.22,0,.39-.02.49-.05s.17-.08.22-.14c.04-.06.08-.1.1-.13.02-.03.07-.05.13-.05h2.23l.95.37c.22.59.47,1.3.73,2.14.26.84.52,1.74.79,2.68.27.95.53,1.89.79,2.82.26.94.51,1.77.74,2.52.24.74.44,1.34.62,1.81.18.46.33.69.44.69.04-.11.1-.21.17-.3.04-.09.11-.19.19-.29.08-.1.15-.19.22-.25.34-1.15.79-2.34,1.37-3.58.57-1.24,1.09-2.42,1.54-3.54,0-.47.14-.88.42-1.23.28-.35.58-.76.89-1.23.07-.16.11-.37.14-.62.02-.26.06-.52.12-.78.06-.26.15-.5.29-.73.14-.22.36-.38.68-.47h1.32l.47.27c.31,0,.61-.03.88-.08.27-.06.53-.12.78-.19.25-.09.51-.19.78-.3Z"/>
      <path class="cls-4" d="M379.1,121.78c.47,0,.87.09,1.2.25.33.17.59.4.79.69.2.29.35.63.44,1.01.09.38.12.79.1,1.22,0,.61-.23,1.1-.68,1.47-.45.37-.91.69-1.38.96-.43.29-.88.55-1.37.78-.48.23-.93.47-1.35.74-.42.27-.77.59-1.05.95-.28.36-.43.82-.46,1.38v1.42c-.05.38.03.76.24,1.13.2.37.46.56.78.56.02.02.11-.01.27-.1s.33-.2.52-.32.38-.25.57-.39c.19-.14.33-.24.42-.3.34-.16.6-.29.79-.39.19-.1.33-.13.42-.08.16,0,.29.02.41.07.11.05.17.21.17.51-.05.5-.26.97-.64,1.43-.38.46-.8.89-1.25,1.28-.45.39-.89.74-1.32,1.03-.43.29-.71.51-.84.64-.38.34-.74.52-1.06.54s-.66.03-1,.03c-.2-.02-.41-.11-.62-.27-.21-.16-.41-.34-.57-.56-.17-.21-.3-.43-.39-.66-.09-.22-.12-.42-.1-.57v-.57c0-.16-.04-.33-.13-.51-.05-.09-.09-.17-.13-.24l.1-.68v-.54c0-.09.02-.33.07-.73.04-.39.1-.82.17-1.28s.13-.9.19-1.32c.06-.42.1-.69.12-.83.09-.07.13-.13.13-.2s-.01-.13-.03-.2-.03-.15-.03-.25.04-.22.13-.36c0-.27.06-.55.17-.84.07-.16.14-.31.2-.47l.47-1.11c.04-.49.28-1.01.71-1.54.43-.53.93-1.01,1.5-1.43.57-.43,1.17-.77,1.77-1.03s1.12-.37,1.55-.32ZM377.59,124.31c-.11,0-.23.08-.34.25-.11.17-.22.35-.34.56-.11.25-.23.51-.34.78-.02.11-.06.24-.1.39-.05.15-.08.28-.1.41-.02.12-.01.23.03.3.04.08.13.12.27.12.11.02.28,0,.51-.07.22-.07.46-.17.69-.3.24-.13.45-.3.64-.49.19-.19.3-.4.32-.62v-.57c0-.11-.03-.21-.1-.3s-.15-.16-.24-.2c-.09-.07-.2-.12-.34-.17l-.57-.07Z"/>
      <path class="cls-4" d="M387.27,122.15c.34,0,.55.12.62.36.08.24.1.52.07.84-.03.33-.08.66-.15,1s-.09.61-.07.81v.95c0,.07.01.19.03.36.02.17.08.31.17.44s.22.2.39.22c.17.02.41-.07.73-.27.11-.09.28-.28.51-.56.22-.28.47-.6.73-.95.26-.35.53-.72.81-1.11.28-.39.55-.75.79-1.06.25-.31.47-.58.68-.79.2-.21.35-.32.44-.32.34,0,.64.08.89.25.26.17.48.38.68.62.19.25.34.5.44.76.1.26.15.47.15.62l-.2.84c0,.07-.01.19-.03.37-.02.18-.02.34.02.49s.1.24.19.29c.09.05.26-.02.51-.2.13-.11.37-.37.71-.78.34-.41.71-.82,1.11-1.25s.82-.81,1.25-1.15c.43-.34.81-.51,1.15-.51.45,0,.78.14,1,.42.21.28.32.58.32.89,0,.07-.02.2-.07.39-.04.19-.1.39-.17.61s-.12.42-.17.62c-.05.2-.07.35-.07.44v.68c0,.34-.1.82-.3,1.43-.2.62-.42,1.28-.66,1.97-.24.7-.45,1.37-.64,2.03-.19.65-.29,1.18-.29,1.59,0,.11-.01.25-.03.42-.02.17-.02.31,0,.44.02.12.09.2.2.22.11.02.3-.06.57-.24.11-.07.29-.19.54-.37.25-.18.49-.33.74-.46.25-.12.46-.18.64-.17.18.01.26.19.24.52-.4.5-.79.95-1.15,1.35-.32.36-.63.71-.94,1.06-.32.35-.55.61-.71.79-.34.25-.61.48-.81.71s-.39.43-.56.62c-.17.19-.36.34-.56.46-.2.11-.47.17-.81.17-.25,0-.45-.07-.61-.22-.16-.15-.29-.31-.41-.49-.11-.18-.19-.37-.24-.56-.04-.19-.07-.33-.07-.42,0-.63.08-1.23.25-1.81.17-.57.37-1.12.59-1.64.22-.52.44-1.03.64-1.54s.34-1.01.41-1.5c0-.09.01-.2.03-.34.02-.13.06-.27.1-.41l.13-.47c0-.16-.01-.37-.03-.64-.02-.27-.07-.52-.15-.76-.08-.24-.19-.43-.32-.57s-.3-.17-.51-.08c-.45.16-.84.53-1.18,1.13-.34.6-.65,1.29-.94,2.09-.29.8-.56,1.64-.81,2.53-.25.89-.5,1.7-.74,2.45-.25.74-.5,1.36-.76,1.86-.26.5-.53.74-.83.74-.16,0-.34-.03-.56-.1-.21-.07-.42-.15-.62-.25s-.37-.21-.51-.32-.2-.2-.2-.27c-.02-.56.04-1.11.2-1.65.16-.54.33-1.05.52-1.52.19-.47.37-.91.54-1.3.17-.39.25-.75.25-1.06v-.27c0-.43.16-1.02.47-1.79.09-.29.2-.57.34-.84.13-.27.18-.5.13-.68,0-.27-.12-.49-.37-.66-.25-.17-.44-.2-.57-.08-.38.11-.73.34-1.05.69-.32.35-.59.72-.83,1.11-.24.39-.44.76-.61,1.11-.17.35-.29.59-.36.73-.32.47-.55.93-.71,1.38s-.33.87-.51,1.25c0,.04-.06.3-.17.78-.11.47-.28.98-.51,1.52-.23.54-.51,1.03-.86,1.47-.35.44-.77.66-1.27.66-.13,0-.26-.05-.39-.15s-.23-.22-.3-.37c-.08-.15-.14-.29-.19-.44-.05-.15-.07-.26-.07-.35,0-.13-.05-.3-.15-.49-.1-.19-.08-.43.05-.73.09-.18.25-.61.47-1.28s.46-1.41.69-2.21.44-1.57.61-2.31.24-1.28.22-1.62c0-.13.04-.27.13-.4s.13-.28.13-.44c0-.31-.03-.56-.08-.74-.06-.18-.24-.27-.56-.27-.13,0-.26.04-.39.13s-.25.2-.39.32c-.13.12-.29.23-.46.32-.17.09-.39.13-.66.13-.16,0-.3-.04-.44-.13-.07-.04-.11-.09-.13-.13,0-.31.1-.61.29-.89.19-.28.41-.42.66-.42.29-.32.6-.62.91-.93.32-.3.64-.52.98-.66.07-.07.22-.21.46-.44.24-.22.5-.46.79-.69.29-.24.59-.45.88-.64.29-.19.52-.29.68-.29Z"/>
      <path class="cls-4" d="M410.2,107.97h.91c.18,0,.35.04.52.13.17.09.34.13.52.13l.95-.27h.54c.16,0,.33.05.52.15.19.1.37.23.54.39.17.16.3.32.41.49.1.17.15.32.15.46,0,.34-.04.7-.13,1.08-.09.38-.25.76-.47,1.13-.22.37-.52.7-.88.99-.36.29-.81.51-1.35.64h-.64c-.25,0-.52.07-.83.2-.3.14-.59.31-.86.52-.27.21-.5.45-.68.71-.18.26-.27.5-.27.73-.18.16-.3.41-.36.76-.06.35-.16.66-.32.93-.18.2-.29.48-.32.83s-.05.61-.05.79l-.37,1.22c0,.32-.07.63-.2.95-.14.32-.29.65-.46,1.01-.17.36-.32.75-.46,1.16-.13.42-.2.87-.2,1.37v.67c0,.11.04.19.13.24.04.02.1.03.17.03.16,0,.32-.13.47-.41.16-.27.36-.57.61-.91.25-.34.55-.64.91-.91.36-.27.82-.41,1.38-.41l.74-.27c.52,0,.91.15,1.18.46.27.3.4.71.4,1.23v.27l-.27.67c.04.18.09.36.13.54.04.16.08.32.1.49s.03.32.03.46c0,.25-.03.4-.1.47-.04.11-.08.21-.12.29-.03.08-.05.14-.05.19,0,.09.01.16.03.22s.04.13.07.22c.02.09.03.2.02.34-.01.13-.05.31-.12.54v1.01c0,.07-.06.21-.19.42-.12.21-.26.46-.42.73-.16.27-.33.56-.51.88-.18.31-.32.62-.41.91l-.37,1.49c-.41.59-.79,1.11-1.15,1.59-.32.41-.61.8-.9,1.18-.28.38-.48.62-.59.71-.25.16-.44.3-.57.44s-.27.25-.41.34-.3.16-.51.2c-.2.04-.52.07-.94.07l-.95.27c-.18,0-.3-.05-.37-.15-.07-.1-.11-.24-.13-.4-.02-.17-.04-.36-.07-.56s-.08-.39-.17-.57c0-.11-.03-.23-.1-.35-.07-.12-.12-.25-.17-.39-.16-.18-.31-.35-.46-.52-.15-.17-.22-.38-.22-.62,0-.18.06-.42.17-.71.07-.16.14-.33.2-.51v-1.01l.3-3.11v-.68l.64-3.17v-1.22c0-.18.06-.56.19-1.15.12-.58.19-1.27.19-2.06v-.95l.95-3.85v-.27c0-.16.03-.41.08-.76.06-.35.12-.7.19-1.06.09-.41.19-.86.3-1.35l.27-.95c.04-.34.14-.64.29-.89.15-.26.37-.62.66-1.1l3.21-2.8ZM408.31,126.1c-.32,0-.64.24-.96.71-.33.47-.62,1.01-.89,1.62-.27.61-.5,1.2-.68,1.77-.18.57-.27.95-.27,1.13v1.32c0,.22.02.43.07.61.04.16.09.3.14.42.04.12.12.19.24.19h.41c.31-.11.66-.31,1.03-.61.37-.29.71-.62,1.03-.98.32-.36.58-.73.79-1.11.21-.38.32-.73.32-1.05v-1.59l-.17-.67.17-.54c0-.81-.4-1.22-1.22-1.22Z"/>
      <path class="cls-4" d="M420.12,121.78c.47,0,.87.09,1.2.25.33.17.59.4.79.69.2.29.35.63.44,1.01.09.38.12.79.1,1.22,0,.61-.23,1.1-.68,1.47-.45.37-.91.69-1.38.96-.43.29-.88.55-1.37.78-.48.23-.93.47-1.35.74-.42.27-.77.59-1.05.95-.28.36-.43.82-.46,1.38v1.42c-.05.38.03.76.24,1.13.2.37.46.56.78.56.02.02.11-.01.27-.1s.33-.2.52-.32.38-.25.57-.39c.19-.14.33-.24.42-.3.34-.16.6-.29.79-.39.19-.1.33-.13.42-.08.16,0,.29.02.41.07.11.05.17.21.17.51-.05.5-.26.97-.64,1.43-.38.46-.8.89-1.25,1.28-.45.39-.89.74-1.32,1.03-.43.29-.71.51-.84.64-.38.34-.74.52-1.06.54s-.66.03-1,.03c-.2-.02-.41-.11-.62-.27-.21-.16-.41-.34-.57-.56-.17-.21-.3-.43-.39-.66-.09-.22-.12-.42-.1-.57v-.57c0-.16-.04-.33-.13-.51-.05-.09-.09-.17-.13-.24l.1-.68v-.54c0-.09.02-.33.07-.73.04-.39.1-.82.17-1.28s.13-.9.19-1.32c.06-.42.1-.69.12-.83.09-.07.13-.13.13-.2s-.01-.13-.03-.2-.03-.15-.03-.25.04-.22.13-.36c0-.27.06-.55.17-.84.07-.16.14-.31.2-.47l.47-1.11c.04-.49.28-1.01.71-1.54.43-.53.93-1.01,1.5-1.43.57-.43,1.17-.77,1.77-1.03s1.12-.37,1.55-.32ZM418.6,124.31c-.11,0-.23.08-.34.25-.11.17-.22.35-.34.56-.11.25-.23.51-.34.78-.02.11-.06.24-.1.39-.05.15-.08.28-.1.41-.02.12-.01.23.03.3.04.08.13.12.27.12.11.02.28,0,.51-.07.22-.07.46-.17.69-.3.24-.13.45-.3.64-.49.19-.19.3-.4.32-.62v-.57c0-.11-.03-.21-.1-.3s-.15-.16-.24-.2c-.09-.07-.2-.12-.34-.17l-.57-.07Z"/>
      <path class="cls-4" d="M427.92,121.57c.25-.04.41-.01.49.1.08.11.26.24.56.37.25.14.46.29.64.47.18.18.27.39.27.64-.02.11-.05.24-.07.37-.05.29-.02.57.07.84,0,.2-.04.45-.12.73-.08.28-.1.51-.05.69.04.09.11.18.2.27.07.07.14.13.22.19.08.06.15.06.22.02.22-.04.47-.26.73-.64.26-.38.51-.81.76-1.28.25-.47.5-.93.74-1.38.25-.45.47-.75.68-.91l1.05-.27c.13-.04.29-.06.46-.03s.3.03.39.03c.43.25.7.59.81,1.03s.19.78.24,1.03c.02.31-.08.73-.32,1.25-.24.52-.53.95-.89,1.28-.16.09-.3.16-.44.22s-.27.11-.41.15c-.11,0-.2,0-.25-.02-.06-.01-.13-.04-.22-.08-.11-.04-.22-.07-.32-.09-.1-.01-.22-.02-.35-.02-.29,0-.57.11-.83.34-.26.23-.51.46-.76.71-.38.47-.68,1.01-.89,1.6-.21.6-.32,1.15-.32,1.67-.16.16-.34.35-.56.59-.21.24-.38.51-.49.83-.13.32-.2.64-.19.98.01.34-.05.66-.19.98.02.27.02.58,0,.93-.02.35-.06.71-.12,1.1-.06.38-.13.75-.22,1.1s-.19.66-.3.93c-.16.11-.35.21-.57.3-.23.09-.46.16-.71.2-.27.07-.56.11-.88.14-.11,0-.26-.09-.44-.27-.09-.09-.17-.18-.24-.27l-.47-.95c-.02-.16,0-.43.07-.81s.15-.77.24-1.17c.09-.39.17-.75.25-1.06s.12-.5.12-.54c.49-.74.82-1.52.98-2.35.16-.82.33-1.64.51-2.45l-.27-2.23c-.11-.29-.25-.44-.42-.44s-.34.02-.52.07c-.36.07-.62.16-.78.29s-.29.25-.41.39c-.11.14-.24.26-.37.39-.14.12-.37.21-.71.25-.18,0-.29-.11-.34-.34-.05-.22-.09-.43-.13-.61-.05-.2-.01-.4.1-.59.11-.19.26-.37.46-.54.19-.17.41-.34.66-.51.25-.17.47-.34.68-.52.27-.29.51-.61.71-.96.2-.35.41-.68.61-.98.2-.3.43-.56.69-.78.26-.21.59-.34,1-.39Z"/>
    </g>
  </g>
</svg>