<svg width="18" height="18" viewBox="0 0 18 18" fill="none" xmlns="http://www.w3.org/2000/svg">
<g clip-path="url(#clip0_3754_3560)">
<rect x="0.472656" y="0.236328" width="17.5273" height="17.5273" rx="8.76367" fill="#C3C3C3"/>
<path d="M6.29748 10.9703C6.17405 11.0914 6.10379 11.2566 6.10215 11.4295C6.10051 11.6025 6.16764 11.769 6.28876 11.8924C6.40988 12.0158 6.57507 12.0861 6.74799 12.0877C6.92092 12.0894 7.08741 12.0222 7.21085 11.9011L9.22762 9.92216L11.2066 11.9389C11.3277 12.0624 11.4929 12.1326 11.6658 12.1343C11.8387 12.1359 12.0052 12.0688 12.1287 11.9477C12.2521 11.8265 12.3224 11.6614 12.324 11.4884C12.3256 11.3155 12.2585 11.149 12.1374 11.0256L10.1584 9.0088L12.1752 7.02984C12.2987 6.90872 12.3689 6.74353 12.3706 6.5706C12.3722 6.39768 12.3051 6.23118 12.1839 6.10775C12.0628 5.98432 11.8976 5.91405 11.7247 5.91242C11.5518 5.91078 11.3853 5.9779 11.2619 6.09902L9.24508 8.07798L7.26612 6.0612C7.145 5.93777 6.97981 5.8675 6.80689 5.86587C6.63396 5.86423 6.46747 5.93136 6.34403 6.05248C6.2206 6.17359 6.15033 6.33879 6.1487 6.51171C6.14706 6.68464 6.21418 6.85113 6.3353 6.97457L8.31426 8.99134L6.29748 10.9703Z" fill="white"/>
</g>
<defs>
<clipPath id="clip0_3754_3560">
<rect x="0.472656" y="0.236328" width="17.5273" height="17.5273" rx="8.76367" fill="white"/>
</clipPath>
</defs>
</svg>
