<svg width="64" height="65" viewBox="0 0 64 65" fill="none" xmlns="http://www.w3.org/2000/svg">
<rect x="0.00299072" y="0.132935" width="63.9901" height="63.9901" rx="31.995" fill="white"/>
<mask id="mask0_3284_4035" style="mask-type:luminance" maskUnits="userSpaceOnUse" x="2" y="2" width="60" height="60">
<path d="M31.9981 61.46C35.8507 61.465 39.6664 60.7085 43.2257 59.2342C46.7851 57.7598 50.018 55.5965 52.7386 52.8687C55.4664 50.1481 57.6297 46.9152 59.1041 43.3558C60.5785 39.7964 61.3349 35.9808 61.3299 32.1281C61.3348 28.2755 60.5784 24.4599 59.104 20.9005C57.6296 17.3412 55.4664 14.1083 52.7386 11.3876C50.018 8.65977 46.7851 6.4965 43.2257 5.02212C39.6664 3.54773 35.8507 2.7913 31.9981 2.79629C28.1454 2.79138 24.3298 3.54785 20.7705 5.02223C17.2111 6.49661 13.9782 8.65983 11.2575 11.3876C8.52977 14.1083 6.36654 17.3412 4.89216 20.9005C3.41778 24.4599 2.66131 28.2755 2.66622 32.1281C2.66123 35.9808 3.41766 39.7964 4.89205 43.3558C6.36643 46.9152 8.5297 50.1481 11.2575 52.8687C13.9782 55.5964 17.2111 57.7597 20.7705 59.2341C24.3298 60.7084 28.1454 61.4649 31.9981 61.46Z" fill="white"/>
<path d="M20.2653 32.128L29.0649 40.9276L46.664 23.3285" stroke="black" stroke-width="4.15295" stroke-linecap="round" stroke-linejoin="round"/>
</mask>
<g mask="url(#mask0_3284_4035)">
<path d="M0.317566 0.132935H63.993V67.3265H0.317566V0.132935Z" fill="#00DD31"/>
</g>
</svg>
