<svg width="68" height="69" viewBox="0 0 68 69" fill="none" xmlns="http://www.w3.org/2000/svg">
<g filter="url(#filter0_i_3284_4044)">
<rect x="-0.00463867" y="0.132935" width="68.0022" height="68.0022" rx="34.0011" fill="#F3F3F3"/>
<path d="M51.1978 43.4323V47.1515H29.4696V43.4323C29.4696 43.4323 29.4696 35.9938 40.3337 35.9938C51.1978 35.9938 51.1978 43.4323 51.1978 43.4323ZM45.7657 26.6957C45.7657 25.5923 45.4471 24.5137 44.8503 23.5962C44.2534 22.6788 43.405 21.9637 42.4124 21.5415C41.4198 21.1192 40.3276 21.0088 39.2739 21.224C38.2202 21.4393 37.2523 21.9706 36.4926 22.7508C35.7329 23.5311 35.2156 24.5251 35.006 25.6073C34.7964 26.6895 34.904 27.8112 35.3151 28.8306C35.7263 29.85 36.4225 30.7213 37.3158 31.3343C38.2091 31.9473 39.2593 32.2745 40.3337 32.2745C41.7743 32.2745 43.156 31.6868 44.1747 30.6405C45.1934 29.5943 45.7657 28.1753 45.7657 26.6957ZM31.2803 30.4149H25.8482V24.8361H22.2268V30.4149H16.7948V34.1342H22.2268V39.713H25.8482V34.1342H31.2803V30.4149Z" fill="#B5B5B5"/>
</g>
<defs>
<filter id="filter0_i_3284_4044" x="-0.00463867" y="0.132935" width="68.9405" height="68.9405" filterUnits="userSpaceOnUse" color-interpolation-filters="sRGB">
<feFlood flood-opacity="0" result="BackgroundImageFix"/>
<feBlend mode="normal" in="SourceGraphic" in2="BackgroundImageFix" result="shape"/>
<feColorMatrix in="SourceAlpha" type="matrix" values="0 0 0 0 0 0 0 0 0 0 0 0 0 0 0 0 0 0 127 0" result="hardAlpha"/>
<feOffset dx="0.938319" dy="0.938319"/>
<feGaussianBlur stdDeviation="2.81496"/>
<feComposite in2="hardAlpha" operator="arithmetic" k2="-1" k3="1"/>
<feColorMatrix type="matrix" values="0 0 0 0 0 0 0 0 0 0 0 0 0 0 0 0 0 0 0.25 0"/>
<feBlend mode="normal" in2="shape" result="effect1_innerShadow_3284_4044"/>
</filter>
</defs>
</svg>
