<svg width="81" height="82" viewBox="0 0 81 82" fill="none" xmlns="http://www.w3.org/2000/svg">
<rect x="0.282471" y="0.717773" width="80.5638" height="80.5638" rx="40.2819" fill="white" fill-opacity="0.68"/>
<path d="M40.461 20.9757C44.0733 20.9757 46.9598 21.921 49.1205 23.8115C51.3149 25.7021 52.4121 28.3691 52.4121 31.8127C52.4121 34.9861 51.3655 37.4675 49.2724 39.2568C47.213 41.0123 44.4784 41.9069 41.0687 41.9407L40.8155 45.7387H33.2195L32.9663 36.3196H36.0047C38.6042 36.3196 40.5792 35.9989 41.9296 35.3575C43.3137 34.716 44.0058 33.5513 44.0058 31.8633C44.0058 30.6817 43.6851 29.7533 43.0436 29.0781C42.4022 28.4029 41.5076 28.0653 40.3597 28.0653C39.1444 28.0653 38.1991 28.4198 37.5239 29.1287C36.8487 29.8039 36.5111 30.7323 36.5111 31.9139H28.358C28.2905 29.8546 28.7125 27.9978 29.624 26.3435C30.5693 24.6893 31.9535 23.3895 33.7765 22.4442C35.6333 21.4652 37.8615 20.9757 40.461 20.9757ZM37.1188 58.9051C35.5995 58.9051 34.3504 58.4662 33.3714 57.5885C32.4261 56.677 31.9535 55.5629 31.9535 54.2462C31.9535 52.8958 32.4261 51.7649 33.3714 50.8533C34.3504 49.9418 35.5995 49.4861 37.1188 49.4861C38.6042 49.4861 39.8196 49.9418 40.7648 50.8533C41.7439 51.7649 42.2334 52.8958 42.2334 54.2462C42.2334 55.5629 41.7439 56.677 40.7648 57.5885C39.8196 58.4662 38.6042 58.9051 37.1188 58.9051Z" fill="#7B7B7B"/>
</svg>
