<svg width="27" height="27" viewBox="0 0 27 27" fill="none" xmlns="http://www.w3.org/2000/svg">
<g clip-path="url(#clip0_3078_2383)">
<path fill-rule="evenodd" clip-rule="evenodd" d="M17.4235 12.6599C17.6205 12.8569 17.7312 13.1241 17.7312 13.4027C17.7312 13.6813 17.6205 13.9485 17.4235 14.1456L11.4797 20.0894C11.3828 20.1897 11.2668 20.2698 11.1386 20.3249C11.0104 20.3799 10.8726 20.4089 10.7331 20.4101C10.5935 20.4113 10.4552 20.3847 10.3261 20.3319C10.1969 20.2791 10.0796 20.2011 9.98096 20.1024C9.88231 20.0038 9.80429 19.8864 9.75146 19.7573C9.69863 19.6282 9.67205 19.4898 9.67326 19.3503C9.67447 19.2108 9.70345 19.0729 9.75852 18.9447C9.81359 18.8166 9.89363 18.7006 9.99399 18.6037L15.195 13.4027L9.99399 8.20171C9.80259 8.00355 9.69669 7.73814 9.69908 7.46265C9.70147 7.18716 9.81198 6.92363 10.0068 6.72882C10.2016 6.53401 10.4651 6.4235 10.7406 6.42111C11.0161 6.41872 11.2815 6.52462 11.4797 6.71602L17.4235 12.6599Z" fill="black"/>
</g>
<defs>
<clipPath id="clip0_3078_2383">
<rect width="25.2169" height="25.2169" fill="white" transform="translate(0.920532 26.0117) rotate(-90)"/>
</clipPath>
</defs>
</svg>
