<svg width="29" height="29" viewBox="0 0 29 29" fill="none" xmlns="http://www.w3.org/2000/svg">
<path d="M7.59586 4.0127C6.80968 4.22325 6.09279 4.63709 5.51729 5.2126C4.94178 5.7881 4.52794 6.50499 4.31738 7.29117M21.5836 4.0127C22.3697 4.22325 23.0866 4.63709 23.6621 5.2126C24.2376 5.7881 24.6515 6.50499 24.862 7.29117" stroke="black" stroke-width="2.31776" stroke-linecap="round"/>
<path fill-rule="evenodd" clip-rule="evenodd" d="M14.5899 23.556C17.0487 23.556 19.4069 22.5792 21.1455 20.8406C22.8842 19.1019 23.8609 16.7438 23.8609 14.285C23.8609 11.8261 22.8842 9.468 21.1455 7.72934C19.4069 5.99068 17.0487 5.01392 14.5899 5.01392C12.1311 5.01392 9.77293 5.99068 8.03427 7.72934C6.29562 9.468 5.31885 11.8261 5.31885 14.285C5.31885 16.7438 6.29562 19.1019 8.03427 20.8406C9.77293 22.5792 12.1311 23.556 14.5899 23.556ZM15.7488 9.64944C15.7488 9.34209 15.6267 9.04732 15.4093 8.82999C15.192 8.61266 14.8972 8.49056 14.5899 8.49056C14.2825 8.49056 13.9878 8.61266 13.7704 8.82999C13.5531 9.04732 13.431 9.34209 13.431 9.64944V13.9952C13.431 14.7949 14.08 15.4438 14.8796 15.4438H18.0665C18.3739 15.4438 18.6687 15.3217 18.886 15.1044C19.1033 14.8871 19.2254 14.5923 19.2254 14.285C19.2254 13.9776 19.1033 13.6828 18.886 13.4655C18.6687 13.2482 18.3739 13.1261 18.0665 13.1261H15.7488V9.64944Z" fill="black"/>
</svg>
