<svg width="19" height="24" viewBox="0 0 19 24" fill="none" xmlns="http://www.w3.org/2000/svg">
<path d="M6.60085 10.7232H12.7525V8.31106C12.7525 7.42324 12.4522 6.66524 11.8514 6.03707C11.2507 5.40889 10.5258 5.09481 9.6767 5.09481C8.82764 5.09481 8.10273 5.40889 7.50198 6.03707C6.90123 6.66524 6.60085 7.42324 6.60085 8.31106V10.7232ZM16.5974 11.9293V19.1659C16.5974 19.5009 16.4852 19.7857 16.2609 20.0202C16.0367 20.2547 15.7643 20.372 15.4439 20.372H3.90948C3.58908 20.372 3.31674 20.2547 3.09246 20.0202C2.86818 19.7857 2.75604 19.5009 2.75604 19.1659V11.9293C2.75604 11.5943 2.86818 11.3095 3.09246 11.075C3.31674 10.8405 3.58908 10.7232 3.90948 10.7232H4.29397V8.31106C4.29397 6.76994 4.82263 5.44658 5.87995 4.341C6.93727 3.23541 8.20285 2.68262 9.6767 2.68262C11.1505 2.68262 12.4161 3.23541 13.4734 4.341C14.5308 5.44658 15.0594 6.76994 15.0594 8.31106V10.7232H15.4439C15.7643 10.7232 16.0367 10.8405 16.2609 11.075C16.4852 11.3095 16.5974 11.5943 16.5974 11.9293Z" fill="black"/>
</svg>
