<svg width="66" height="68" viewBox="0 0 66 68" fill="none" xmlns="http://www.w3.org/2000/svg">
<g clip-path="url(#clip0_3180_3432)">
<path d="M33.315 8.94664C37.705 8.94664 41.265 7.12664 41.265 4.87664C41.265 2.62664 37.705 0.806641 33.315 0.806641C28.925 0.806641 25.365 2.62664 25.365 4.87664C25.365 7.12664 28.925 8.94664 33.315 8.94664ZM33.315 3.18664C35.445 3.18664 37.175 3.94664 37.175 4.87664C37.175 5.80664 35.445 6.56664 33.315 6.56664C31.185 6.56664 29.455 5.80664 29.455 4.87664C29.455 3.94664 31.185 3.18664 33.315 3.18664Z" fill="black"/>
<path d="M0.755021 52.1466C9.01502 36.9266 0.0150204 49.8766 19.855 51.0866C20.415 51.0866 21.075 51.2466 20.675 51.9066C19.645 53.6466 18.805 55.4066 17.815 57.1466C16.945 58.5166 16.245 60.5266 15.125 61.5266C13.895 62.5966 11.775 61.8566 11.475 60.2666C11.085 58.6566 12.585 57.3666 12.955 55.9666C12.955 55.5366 12.445 55.2866 12.075 55.2366C11.545 55.2066 11.415 55.6566 11.115 56.1466C10.785 56.7266 10.515 57.2966 10.155 57.7966C9.14502 59.3766 6.55502 59.0066 6.03502 57.1966C5.70502 56.0166 6.22502 55.2766 6.84502 54.1266C7.03502 53.7466 7.47502 53.1566 7.20502 52.7966C6.91502 52.3966 6.21502 52.1466 5.85502 52.6466C5.15502 53.6566 4.67502 55.2066 3.29502 55.4866C1.46502 55.9466 -0.0649794 53.9266 0.705021 52.2466L0.745021 52.1466H0.755021Z" fill="black"/>
<path d="M65.2451 52.1466C56.9851 36.9266 65.9851 49.8766 46.1451 51.0866C45.5851 51.0866 44.9251 51.2466 45.3251 51.9066C46.3551 53.6466 47.195 55.4066 48.185 57.1466C49.055 58.5166 49.7551 60.5266 50.8751 61.5266C52.1051 62.5966 54.225 61.8566 54.525 60.2666C54.915 58.6566 53.415 57.3666 53.045 55.9666C53.045 55.5366 53.5551 55.2866 53.9251 55.2366C54.4551 55.2066 54.585 55.6566 54.885 56.1466C55.215 56.7266 55.4851 57.2966 55.8451 57.7966C56.8551 59.3766 59.4451 59.0066 59.9651 57.1966C60.2951 56.0166 59.7751 55.2766 59.1551 54.1266C58.9651 53.7466 58.525 53.1566 58.795 52.7966C59.085 52.3966 59.7851 52.1466 60.1451 52.6466C60.8451 53.6566 61.3251 55.2066 62.705 55.4866C64.535 55.9466 66.0651 53.9266 65.295 52.2466L65.255 52.1466H65.2451Z" fill="black"/>
<path d="M10.615 6.32626C12.385 9.51626 14.995 10.4963 18.045 10.9963C18.975 11.1463 19.115 12.4763 18.395 13.0763L11.155 19.1063C10.535 19.6263 9.57502 19.4063 9.25502 18.6663C7.28502 14.1563 6.55502 9.94626 8.57502 6.39626C9.00502 5.63626 10.185 5.55626 10.605 6.32626H10.615Z" fill="black"/>
<path d="M55.205 6.32626C53.435 9.51626 50.825 10.4963 47.775 10.9963C46.845 11.1463 46.705 12.4763 47.425 13.0763L54.665 19.1063C55.285 19.6263 56.245 19.4063 56.565 18.6663C58.535 14.1563 59.265 9.94626 57.245 6.39626C56.815 5.63626 55.635 5.55626 55.215 6.32626H55.205Z" fill="black"/>
<path d="M58.9051 34.2864C58.7751 33.7064 58.6551 33.1264 58.4951 32.5564C57.8151 30.1864 56.7051 27.9664 55.3551 25.9164C54.8951 25.2164 54.4051 24.5264 53.8951 23.8664C50.7551 19.7764 46.6251 16.1264 41.7651 14.2764C41.3651 14.1264 40.9751 13.9864 40.5651 13.8564C39.3251 13.4564 38.0651 13.1264 36.7751 12.9264C35.5451 12.7364 34.2951 12.6264 33.0451 12.6064C31.7951 12.6264 30.5451 12.7364 29.3151 12.9264C28.0251 13.1264 26.7651 13.4664 25.5251 13.8564C25.1251 13.9864 24.7251 14.1264 24.3251 14.2764C19.4651 16.1264 15.3351 19.7764 12.1951 23.8664C11.6851 24.5364 11.1951 25.2164 10.7351 25.9164C9.38507 27.9764 8.27507 30.1864 7.59507 32.5564C7.43507 33.1264 7.31507 33.7064 7.18507 34.2864C6.34507 38.0564 7.15507 42.5964 10.5051 44.9264C12.2351 46.1364 14.3151 46.7464 16.3751 47.1264C18.8851 47.5764 21.5051 47.6464 24.0451 47.5264C24.6251 47.4964 25.2751 47.3964 25.7251 47.8464C26.4351 48.5464 25.4651 50.0364 25.1751 50.7464C24.3351 52.7864 23.4651 54.8064 22.8051 56.9264C22.3751 58.3064 21.9351 59.7764 22.0851 61.2364C22.2851 63.1564 23.4151 64.8264 24.9651 65.9564C26.3751 66.9864 28.0051 67.3264 29.6951 67.5564C30.8051 67.7064 31.9251 67.7864 33.0351 67.7964C34.1451 67.7964 35.2651 67.7064 36.3751 67.5564C38.0651 67.3264 39.6951 66.9764 41.1051 65.9564C42.6551 64.8264 43.7851 63.1564 43.9851 61.2364C44.1351 59.7764 43.6951 58.3064 43.2651 56.9264C42.6051 54.8064 41.7451 52.7864 40.8951 50.7464C40.6051 50.0464 39.6251 48.5564 40.3451 47.8464C40.8051 47.3964 41.4551 47.4964 42.0251 47.5264C44.5651 47.6464 47.1851 47.5864 49.6951 47.1264C51.7551 46.7564 53.8251 46.1364 55.5651 44.9264C58.9151 42.5964 59.7251 38.0564 58.8851 34.2864H58.9051ZM17.5651 34.1564C15.8951 31.8864 15.0651 26.0964 17.8451 26.2264C19.7851 26.5564 21.6251 27.7464 23.5451 28.5864C25.3951 29.5764 28.9651 30.8664 29.7751 32.1664L29.8151 32.2464C30.4551 34.2564 26.3551 36.7664 23.4151 36.9764C21.1351 37.1764 18.8351 36.0764 17.5751 34.1664L17.5651 34.1564ZM48.4351 34.1564C47.1651 36.0664 44.8751 37.1764 42.5951 36.9664C39.6551 36.7564 35.5551 34.2464 36.1951 32.2364L36.2351 32.1564C37.0451 30.8564 40.6151 29.5564 42.4651 28.5764C44.3851 27.7364 46.2251 26.5464 48.1651 26.2164C50.9451 26.0964 50.1151 31.8764 48.4451 34.1464L48.4351 34.1564Z" fill="black"/>
</g>
<defs>
<clipPath id="clip0_3180_3432">
<rect width="64.97" height="66.99" fill="white" transform="translate(0.515015 0.806641)"/>
</clipPath>
</defs>
</svg>
