<svg width="74" height="74" viewBox="0 0 74 74" fill="none" xmlns="http://www.w3.org/2000/svg">
<mask id="mask0_2434_1054" style="mask-type:luminance" maskUnits="userSpaceOnUse" x="8" y="17" width="46" height="46">
<path d="M30.5743 17.4678C43.0654 17.4678 53.1232 27.5256 53.1232 40.0167C53.1232 52.5078 43.0654 62.5656 30.5743 62.5656C18.0832 62.5656 8.02539 52.5078 8.02539 40.0167C8.02539 27.5256 18.0832 17.4678 30.5743 17.4678Z" fill="white"/>
</mask>
<g mask="url(#mask0_2434_1054)">
<path fill-rule="evenodd" clip-rule="evenodd" d="M41.2809 33.8523C41.6053 34.1767 41.7675 34.6634 41.7675 34.9878C41.7675 35.3123 41.6053 35.7989 41.2809 36.1234L28.6275 48.7767C28.4653 48.9389 28.3031 49.1012 27.9786 49.1012C27.8164 49.1012 27.492 49.1012 27.3297 49.1012C27.1675 49.1012 26.8431 49.1012 26.6809 49.1012C26.5186 49.1012 26.1942 48.9389 26.032 48.7767L19.7053 42.4501C19.7053 42.4501 19.3809 42.1256 19.3809 41.9634C19.3809 41.8012 19.3809 41.4767 19.3809 41.3145C19.3809 41.1523 19.3809 40.8278 19.3809 40.6656C19.3809 40.5034 19.5431 40.3412 19.7053 40.1789C19.7053 40.1789 20.0297 39.8545 20.192 39.8545C20.3542 39.8545 20.6786 39.8545 20.8409 39.8545C21.0031 39.8545 21.3275 39.8545 21.4897 39.8545C21.652 39.8545 21.8142 40.0167 21.9764 40.1789L27.1675 45.3701L38.6853 33.8523C38.6853 33.8523 39.0097 33.5278 39.172 33.5278C39.3342 33.5278 39.6586 33.5278 39.8209 33.5278C39.9831 33.5278 40.3075 33.5278 40.4697 33.5278C40.632 33.5278 40.7942 33.6901 40.9564 33.8523H41.2809Z" fill="#038FEF"/>
</g>
<path d="M30.575 19.4146C41.9305 19.4146 51.3394 28.6612 51.3394 40.179C51.3394 51.5345 42.0928 60.9434 30.575 60.9434C19.2194 60.9434 9.81055 51.6968 9.81055 40.179C9.81055 28.8234 19.0572 19.4146 30.575 19.4146Z" stroke="#038FEF" stroke-width="4"/>
<path d="M7.37661 17.468C9.97216 20.8747 13.2166 21.5236 16.7855 21.5236C17.9211 21.5236 18.2455 22.9836 17.5966 23.7947L10.2966 32.068C9.64772 32.7169 8.51216 32.7169 8.0255 32.068C4.94327 27.2013 3.32105 22.4969 4.94327 17.9547C5.26772 16.9813 6.5655 16.6569 7.21439 17.468H7.37661Z" fill="#038FEF"/>
<path d="M52.7988 17.4679C50.2032 20.8746 46.9588 21.5235 43.3899 21.5235C42.2543 21.5235 41.9299 22.9835 42.5788 23.7946L49.8788 32.0679C50.5277 32.7168 51.6632 32.7168 52.1499 32.0679C55.2321 27.2013 56.8543 22.4968 55.2321 17.9546C53.6099 13.4124 53.6099 16.6568 52.961 17.4679H52.7988Z" fill="#038FEF"/>
<path d="M69.6704 40.8279C69.6704 40.8279 69.6704 40.8279 69.6704 40.6657C69.346 39.5301 67.886 34.339 67.2371 32.2301C66.5882 31.0945 65.4527 33.6901 64.3171 34.9879C63.8304 35.9612 60.586 39.6923 62.046 39.3679C67.5615 37.259 61.5593 44.2345 59.9371 45.2079C57.8282 46.8301 55.0704 47.6412 52.3127 47.8034C50.5282 47.8034 48.7438 48.1279 47.6082 49.7501C47.1215 50.399 46.1482 51.3723 47.1215 51.6968C54.4215 52.8323 65.4527 50.5612 66.426 40.8279C66.7504 38.3945 68.5349 40.3412 69.6704 40.8279Z" fill="#038FEF"/>
</svg>
