<svg width="34" height="34" viewBox="0 0 34 34" fill="none" xmlns="http://www.w3.org/2000/svg">
<g clip-path="url(#clip0_3078_1942)">
<path fill-rule="evenodd" clip-rule="evenodd" d="M11.9824 17.9007C11.721 17.6392 11.5741 17.2847 11.5741 16.9149C11.5741 16.5452 11.721 16.1907 11.9824 15.9292L19.8697 8.04186C19.9983 7.9087 20.1522 7.80248 20.3223 7.72941C20.4924 7.65633 20.6753 7.61787 20.8605 7.61626C21.0456 7.61465 21.2292 7.64993 21.4005 7.72004C21.5719 7.79014 21.7276 7.89367 21.8585 8.02458C21.9894 8.15549 22.0929 8.31116 22.163 8.48251C22.2331 8.65386 22.2684 8.83746 22.2668 9.02259C22.2652 9.20772 22.2267 9.39067 22.1536 9.56078C22.0806 9.73088 21.9744 9.88473 21.8412 10.0133L14.9396 16.9149L21.8412 23.8165C22.0952 24.0795 22.2357 24.4317 22.2325 24.7973C22.2293 25.1628 22.0827 25.5125 21.8242 25.771C21.5657 26.0295 21.216 26.1762 20.8504 26.1794C20.4849 26.1825 20.1327 26.042 19.8697 25.788L11.9824 17.9007Z" fill="black"/>
</g>
<defs>
<clipPath id="clip0_3078_1942">
<rect width="33.4623" height="33.4623" fill="white" transform="translate(33.8815 0.183594) rotate(90)"/>
</clipPath>
</defs>
</svg>
