<svg width="75" height="75" viewBox="0 0 75 75" fill="none" xmlns="http://www.w3.org/2000/svg">
<rect x="0.0187988" y="0.173706" width="74.7095" height="74.7095" rx="37.3547" fill="#FF0000"/>
<path d="M18.2141 33.4365C19.2141 32.3687 21.005 31.2303 24.3635 30.1594C28.4532 28.8624 31.8458 28.074 37.0994 27.8947C42.17 27.7268 45.0584 28.0393 49.9752 29.2953C55.5278 30.7124 57.1273 32.8551 57.5888 34.0081C58.1419 35.3845 58.0967 36.6093 57.8622 38.0274C57.7228 38.8271 57.51 39.6123 57.2265 40.3729C57.1988 40.4496 57.1736 40.5215 57.1513 40.5859C57.0197 40.9709 56.8199 41.5538 56.1362 41.8891C55.6812 42.114 55.1249 42.1742 54.1923 42.2106C52.2811 42.2865 48.8258 41.6003 47.2843 41.0973C46.2466 40.7569 45.561 40.5329 45.0255 40.0324C44.3991 39.4458 44.2112 38.6783 44.0479 37.8077C44.0171 37.6444 43.9902 37.4856 43.9639 37.3317C43.8067 36.4031 43.7342 36.1637 43.3955 35.9595C42.714 35.5502 40.1733 34.8785 37.2814 34.9765C34.3894 35.0746 32.0013 35.9165 31.3465 36.3723C31.008 36.6077 30.952 36.8582 30.8544 37.8264C30.8404 37.9653 30.8266 38.1084 30.8091 38.2553C30.6968 39.2447 30.5723 39.9927 29.9996 40.6043L29.9965 40.6076C29.498 41.1399 28.8404 41.3794 27.7527 41.7778C26.3339 42.2973 22.887 43.2906 20.9682 43.345C20.0353 43.3719 19.4763 43.3505 19.0075 43.157C18.3018 42.8657 18.0668 42.2975 17.9065 41.9205C17.88 41.8577 17.8513 41.7887 17.818 41.7134C17.488 40.9721 17.2268 40.202 17.0379 39.4128C16.7126 38.0167 16.591 36.7969 17.0542 35.3845C17.2882 34.6557 17.6849 33.9896 18.2141 33.4365Z" fill="white"/>
</svg>
