<svg width="137" height="19" viewBox="0 0 137 19" fill="none" xmlns="http://www.w3.org/2000/svg">
<g clip-path="url(#clip0_3271_2590)">
<g filter="url(#filter0_d_3271_2590)">
<path d="M13.3467 5.56779V13.2355C13.3467 13.526 13.2313 13.8046 13.0259 14.01C12.8205 14.2155 12.5419 14.3309 12.2514 14.3309H2.39291C2.1024 14.3309 1.82379 14.2155 1.61836 14.01C1.41294 13.8046 1.29753 13.526 1.29753 13.2355V5.56779C1.29753 5.27728 1.41294 4.99867 1.61836 4.79324C1.82379 4.58782 2.1024 4.47241 2.39291 4.47241H12.2514C12.5419 4.47241 12.8205 4.58782 13.0259 4.79324C13.2313 4.99867 13.3467 5.27728 13.3467 5.56779ZM17.3175 5.58491C17.2402 5.566 17.1598 5.56367 17.0816 5.57807C17.0034 5.59246 16.9291 5.62326 16.8636 5.66843L14.564 7.20128C14.5265 7.22631 14.4957 7.26022 14.4745 7.29999C14.4532 7.33976 14.4421 7.38416 14.4421 7.42926V11.374C14.4421 11.4191 14.4532 11.4635 14.4745 11.5033C14.4957 11.5431 14.5265 11.577 14.564 11.602L16.8766 13.1437C16.9632 13.2015 17.0644 13.2334 17.1684 13.2357C17.2724 13.238 17.375 13.2106 17.464 13.1567C17.5464 13.1044 17.6139 13.0317 17.6602 12.9458C17.7065 12.8599 17.7299 12.7635 17.7283 12.6659V6.11549C17.7283 5.99402 17.688 5.87598 17.6137 5.77993C17.5393 5.68388 17.4351 5.61528 17.3175 5.58491Z" fill="white"/>
</g>
</g>
<g filter="url(#filter1_d_3271_2590)">
<path d="M30.4094 4.97761V6.62161H26.9774V8.39761H29.5454V9.99361H26.9774V13.4016H24.9254V4.97761H30.4094ZM31.0799 10.0416C31.0799 9.35361 31.2079 8.74961 31.4639 8.22961C31.7279 7.70961 32.0839 7.30961 32.5319 7.02961C32.9799 6.74961 33.4799 6.60961 34.0319 6.60961C34.5039 6.60961 34.9159 6.70561 35.2679 6.89761C35.6279 7.08961 35.9039 7.34161 36.0959 7.65361V6.70561H38.1479V13.4016H36.0959V12.4536C35.8959 12.7656 35.6159 13.0176 35.2559 13.2096C34.9039 13.4016 34.4919 13.4976 34.0199 13.4976C33.4759 13.4976 32.9799 13.3576 32.5319 13.0776C32.0839 12.7896 31.7279 12.3856 31.4639 11.8656C31.2079 11.3376 31.0799 10.7296 31.0799 10.0416ZM36.0959 10.0536C36.0959 9.54161 35.9519 9.13761 35.6639 8.84161C35.3839 8.54561 35.0399 8.39761 34.6319 8.39761C34.2239 8.39761 33.8759 8.54561 33.5879 8.84161C33.3079 9.12961 33.1679 9.52961 33.1679 10.0416C33.1679 10.5536 33.3079 10.9616 33.5879 11.2656C33.8759 11.5616 34.2239 11.7096 34.6319 11.7096C35.0399 11.7096 35.3839 11.5616 35.6639 11.2656C35.9519 10.9696 36.0959 10.5656 36.0959 10.0536ZM39.2244 10.0536C39.2244 9.35761 39.3644 8.74961 39.6444 8.22961C39.9324 7.70961 40.3284 7.30961 40.8324 7.02961C41.3444 6.74961 41.9284 6.60961 42.5844 6.60961C43.4244 6.60961 44.1244 6.82961 44.6844 7.26961C45.2524 7.70961 45.6244 8.32961 45.8004 9.12961H43.6164C43.4324 8.61761 43.0764 8.36161 42.5484 8.36161C42.1724 8.36161 41.8724 8.50961 41.6484 8.80561C41.4244 9.09361 41.3124 9.50961 41.3124 10.0536C41.3124 10.5976 41.4244 11.0176 41.6484 11.3136C41.8724 11.6016 42.1724 11.7456 42.5484 11.7456C43.0764 11.7456 43.4324 11.4896 43.6164 10.9776H45.8004C45.6244 11.7616 45.2524 12.3776 44.6844 12.8256C44.1164 13.2736 43.4164 13.4976 42.5844 13.4976C41.9284 13.4976 41.3444 13.3576 40.8324 13.0776C40.3284 12.7976 39.9324 12.3976 39.6444 11.8776C39.3644 11.3576 39.2244 10.7496 39.2244 10.0536ZM53.2101 9.94561C53.2101 10.1376 53.1981 10.3376 53.1741 10.5456H48.5301C48.5621 10.9616 48.6941 11.2816 48.9261 11.5056C49.1661 11.7216 49.4581 11.8296 49.8021 11.8296C50.3141 11.8296 50.6701 11.6136 50.8701 11.1816H53.0541C52.9421 11.6216 52.7381 12.0176 52.4421 12.3696C52.1541 12.7216 51.7901 12.9976 51.3501 13.1976C50.9101 13.3976 50.4181 13.4976 49.8741 13.4976C49.2181 13.4976 48.6341 13.3576 48.1221 13.0776C47.6101 12.7976 47.2101 12.3976 46.9221 11.8776C46.6341 11.3576 46.4901 10.7496 46.4901 10.0536C46.4901 9.35761 46.6301 8.74961 46.9101 8.22961C47.1981 7.70961 47.5981 7.30961 48.1101 7.02961C48.6221 6.74961 49.2101 6.60961 49.8741 6.60961C50.5221 6.60961 51.0981 6.74561 51.6021 7.01761C52.1061 7.28961 52.4981 7.67761 52.7781 8.18161C53.0661 8.68561 53.2101 9.27361 53.2101 9.94561ZM51.1101 9.40561C51.1101 9.05361 50.9901 8.77361 50.7501 8.56561C50.5101 8.35761 50.2101 8.25361 49.8501 8.25361C49.5061 8.25361 49.2141 8.35361 48.9741 8.55361C48.7421 8.75361 48.5981 9.03761 48.5421 9.40561H51.1101ZM60.3526 4.97761V6.62161H58.1206V13.4016H56.0686V6.62161H53.8366V4.97761H60.3526ZM62.4144 6.00961C62.0544 6.00961 61.7584 5.90561 61.5264 5.69761C61.3024 5.48161 61.1904 5.21761 61.1904 4.90561C61.1904 4.58561 61.3024 4.32161 61.5264 4.11361C61.7584 3.89761 62.0544 3.78961 62.4144 3.78961C62.7664 3.78961 63.0544 3.89761 63.2784 4.11361C63.5104 4.32161 63.6264 4.58561 63.6264 4.90561C63.6264 5.21761 63.5104 5.48161 63.2784 5.69761C63.0544 5.90561 62.7664 6.00961 62.4144 6.00961ZM63.4344 6.70561V13.4016H61.3824V6.70561H63.4344ZM73.4655 6.63361C74.2975 6.63361 74.9575 6.88561 75.4455 7.38961C75.9415 7.89361 76.1895 8.59361 76.1895 9.48961V13.4016H74.1495V9.76561C74.1495 9.33361 74.0335 9.00161 73.8015 8.76961C73.5775 8.52961 73.2655 8.40961 72.8655 8.40961C72.4655 8.40961 72.1495 8.52961 71.9175 8.76961C71.6935 9.00161 71.5815 9.33361 71.5815 9.76561V13.4016H69.5415V9.76561C69.5415 9.33361 69.4255 9.00161 69.1935 8.76961C68.9695 8.52961 68.6575 8.40961 68.2575 8.40961C67.8575 8.40961 67.5415 8.52961 67.3095 8.76961C67.0855 9.00161 66.9735 9.33361 66.9735 9.76561V13.4016H64.9215V6.70561H66.9735V7.54561C67.1815 7.26561 67.4535 7.04561 67.7895 6.88561C68.1255 6.71761 68.5055 6.63361 68.9295 6.63361C69.4335 6.63361 69.8815 6.74161 70.2735 6.95761C70.6735 7.17361 70.9855 7.48161 71.2095 7.88161C71.4415 7.51361 71.7575 7.21361 72.1575 6.98161C72.5575 6.74961 72.9935 6.63361 73.4655 6.63361ZM83.9366 9.94561C83.9366 10.1376 83.9246 10.3376 83.9006 10.5456H79.2566C79.2886 10.9616 79.4206 11.2816 79.6526 11.5056C79.8926 11.7216 80.1846 11.8296 80.5286 11.8296C81.0406 11.8296 81.3966 11.6136 81.5966 11.1816H83.7806C83.6686 11.6216 83.4646 12.0176 83.1686 12.3696C82.8806 12.7216 82.5166 12.9976 82.0766 13.1976C81.6366 13.3976 81.1446 13.4976 80.6006 13.4976C79.9446 13.4976 79.3606 13.3576 78.8486 13.0776C78.3366 12.7976 77.9366 12.3976 77.6486 11.8776C77.3606 11.3576 77.2166 10.7496 77.2166 10.0536C77.2166 9.35761 77.3566 8.74961 77.6366 8.22961C77.9246 7.70961 78.3246 7.30961 78.8366 7.02961C79.3486 6.74961 79.9366 6.60961 80.6006 6.60961C81.2486 6.60961 81.8246 6.74561 82.3286 7.01761C82.8326 7.28961 83.2246 7.67761 83.5046 8.18161C83.7926 8.68561 83.9366 9.27361 83.9366 9.94561ZM81.8366 9.40561C81.8366 9.05361 81.7166 8.77361 81.4766 8.56561C81.2366 8.35761 80.9366 8.25361 80.5766 8.25361C80.2326 8.25361 79.9406 8.35361 79.7006 8.55361C79.4686 8.75361 79.3246 9.03761 79.2686 9.40561H81.8366Z" fill="white"/>
</g>
<g filter="url(#filter2_d_3271_2590)">
<path d="M93.3101 6.68161C93.3101 7.53361 93.8981 8.04961 94.7141 8.04961C95.5301 8.04961 96.1301 7.53361 96.1301 6.68161C96.1301 5.81761 95.5301 5.31361 94.7141 5.31361C93.8981 5.31361 93.3101 5.81761 93.3101 6.68161ZM99.3221 6.08161H97.5701C97.6061 6.27361 97.6301 6.46561 97.6301 6.68161C97.6301 6.88561 97.6061 7.07761 97.5581 7.28161H99.3221V6.08161ZM99.3221 8.54161H96.8621C96.3341 9.06961 95.5781 9.38161 94.7141 9.38161C93.0821 9.38161 91.8101 8.24161 91.8101 6.68161C91.8101 5.10961 93.0821 3.96961 94.7141 3.96961C95.6021 3.96961 96.3581 4.29361 96.8861 4.82161H99.3221V3.38161H100.906V9.86161H99.3221V8.54161ZM97.1621 13.2216C98.6141 13.2216 99.3941 12.9096 99.3941 12.2616C99.3941 11.6136 98.6141 11.3016 97.1621 11.3016C95.7101 11.3016 94.9421 11.6136 94.9421 12.2616C94.9421 12.9096 95.7101 13.2216 97.1621 13.2216ZM97.1621 10.0776C99.5021 10.0776 100.954 10.8816 100.954 12.2616C100.954 13.6296 99.5021 14.4336 97.1621 14.4336C94.8341 14.4336 93.3821 13.6296 93.3821 12.2616C93.3821 10.8816 94.8341 10.0776 97.1621 10.0776ZM109.221 8.27761L108.393 9.50161C107.229 9.11761 106.425 8.37361 105.957 7.43761C105.477 8.51761 104.625 9.36961 103.365 9.81361L102.537 8.56561C104.385 7.95361 105.129 6.47761 105.129 4.97761V3.98161H106.737V5.10961C106.737 6.44161 107.481 7.73761 109.221 8.27761ZM107.793 13.2096C109.197 13.2096 109.953 12.9216 109.953 12.2976C109.953 11.6856 109.197 11.3976 107.793 11.3976C106.377 11.3976 105.621 11.6856 105.621 12.2976C105.621 12.9216 106.377 13.2096 107.793 13.2096ZM107.793 10.1736C110.085 10.1736 111.525 10.9656 111.525 12.2976C111.525 13.6416 110.085 14.4336 107.793 14.4336C105.489 14.4336 104.049 13.6416 104.049 12.2976C104.049 10.9656 105.489 10.1736 107.793 10.1736ZM111.405 5.94961H112.869V7.25761H111.405V9.92161H109.821V3.39361H111.405V5.94961ZM118.712 13.2816C120.248 13.2816 120.956 13.0776 120.956 12.6216C120.956 12.1656 120.248 11.9736 118.712 11.9736C117.188 11.9736 116.48 12.1656 116.48 12.6216C116.48 13.0776 117.188 13.2816 118.712 13.2816ZM118.712 10.8096C121.148 10.8096 122.552 11.4336 122.552 12.6216C122.552 13.7976 121.148 14.4336 118.712 14.4336C116.288 14.4336 114.884 13.7976 114.884 12.6216C114.884 11.4336 116.288 10.8096 118.712 10.8096ZM119.516 9.08161H123.728V10.3176H113.732V9.08161H117.932V8.39761H114.98V3.66961H122.588V4.86961H116.552V5.44561H122.336V6.59761H116.552V7.19761H122.672V8.39761H119.516V9.08161ZM131.371 4.59361V5.84161H124.867V4.59361H127.339V3.42961H128.923V4.59361H131.371ZM126.931 8.34961C126.931 8.93761 127.411 9.24961 128.131 9.24961C128.851 9.24961 129.331 8.93761 129.331 8.34961C129.331 7.78561 128.851 7.47361 128.131 7.47361C127.411 7.47361 126.931 7.78561 126.931 8.34961ZM128.923 10.3536V11.2296C129.775 11.1816 130.627 11.1216 131.419 11.0016L131.539 12.1416C129.211 12.5976 126.727 12.5976 124.855 12.5976L124.663 11.3136C125.455 11.3136 126.367 11.3136 127.339 11.2896V10.3536C126.187 10.1136 125.431 9.36961 125.431 8.34961C125.431 7.11361 126.547 6.27361 128.131 6.27361C129.715 6.27361 130.831 7.11361 130.831 8.34961C130.831 9.36961 130.075 10.1136 128.923 10.3536ZM134.947 7.88161V9.18961H133.567V14.4336H131.983V3.38161H133.567V7.88161H134.947Z" fill="white"/>
</g>
<defs>
<filter id="filter0_d_3271_2590" x="-0.702469" y="3.47241" width="20.4308" height="13.8584" filterUnits="userSpaceOnUse" color-interpolation-filters="sRGB">
<feFlood flood-opacity="0" result="BackgroundImageFix"/>
<feColorMatrix in="SourceAlpha" type="matrix" values="0 0 0 0 0 0 0 0 0 0 0 0 0 0 0 0 0 0 127 0" result="hardAlpha"/>
<feOffset dy="1"/>
<feGaussianBlur stdDeviation="1"/>
<feComposite in2="hardAlpha" operator="out"/>
<feColorMatrix type="matrix" values="0 0 0 0 0 0 0 0 0 0 0 0 0 0 0 0 0 0 0.2 0"/>
<feBlend mode="normal" in2="BackgroundImageFix" result="effect1_dropShadow_3271_2590"/>
<feBlend mode="normal" in="SourceGraphic" in2="effect1_dropShadow_3271_2590" result="shape"/>
</filter>
<filter id="filter1_d_3271_2590" x="22.9254" y="2.78955" width="63.0112" height="13.708" filterUnits="userSpaceOnUse" color-interpolation-filters="sRGB">
<feFlood flood-opacity="0" result="BackgroundImageFix"/>
<feColorMatrix in="SourceAlpha" type="matrix" values="0 0 0 0 0 0 0 0 0 0 0 0 0 0 0 0 0 0 127 0" result="hardAlpha"/>
<feOffset dy="1"/>
<feGaussianBlur stdDeviation="1"/>
<feComposite in2="hardAlpha" operator="out"/>
<feColorMatrix type="matrix" values="0 0 0 0 0 0 0 0 0 0 0 0 0 0 0 0 0 0 0.2 0"/>
<feBlend mode="normal" in2="BackgroundImageFix" result="effect1_dropShadow_3271_2590"/>
<feBlend mode="normal" in="SourceGraphic" in2="effect1_dropShadow_3271_2590" result="shape"/>
</filter>
<filter id="filter2_d_3271_2590" x="89.8102" y="2.38159" width="47.1372" height="15.052" filterUnits="userSpaceOnUse" color-interpolation-filters="sRGB">
<feFlood flood-opacity="0" result="BackgroundImageFix"/>
<feColorMatrix in="SourceAlpha" type="matrix" values="0 0 0 0 0 0 0 0 0 0 0 0 0 0 0 0 0 0 127 0" result="hardAlpha"/>
<feOffset dy="1"/>
<feGaussianBlur stdDeviation="1"/>
<feComposite in2="hardAlpha" operator="out"/>
<feColorMatrix type="matrix" values="0 0 0 0 0 0 0 0 0 0 0 0 0 0 0 0 0 0 0.2 0"/>
<feBlend mode="normal" in2="BackgroundImageFix" result="effect1_dropShadow_3271_2590"/>
<feBlend mode="normal" in="SourceGraphic" in2="effect1_dropShadow_3271_2590" result="shape"/>
</filter>
<clipPath id="clip0_3271_2590">
<rect width="17.5261" height="17.5261" fill="white" transform="translate(0.202148 0.638672)"/>
</clipPath>
</defs>
</svg>
