<svg width="19" height="19" viewBox="0 0 19 19" fill="none" xmlns="http://www.w3.org/2000/svg">
<path d="M4.96888 12.8228C4.77326 13.0148 4.66191 13.2766 4.65931 13.5506C4.65672 13.8247 4.7631 14.0885 4.95505 14.2841C5.147 14.4798 5.4088 14.5911 5.68285 14.5937C5.9569 14.5963 6.22076 14.4899 6.41638 14.298L9.61256 11.1617L12.7488 14.3579C12.9408 14.5535 13.2025 14.6649 13.4766 14.6675C13.7507 14.6701 14.0145 14.5637 14.2101 14.3717C14.4057 14.1798 14.5171 13.918 14.5197 13.6439C14.5223 13.3699 14.4159 13.106 14.224 12.9104L11.0877 9.71423L14.2839 6.57798C14.4795 6.38603 14.5909 6.12423 14.5935 5.85018C14.5961 5.57613 14.4897 5.31227 14.2977 5.11665C14.1058 4.92103 13.844 4.80968 13.5699 4.80709C13.2959 4.80449 13.032 4.91087 12.8364 5.10282L9.64022 8.23906L6.50398 5.04288C6.31203 4.84727 6.05023 4.73591 5.77618 4.73332C5.50213 4.73072 5.23827 4.8371 5.04265 5.02905C4.84703 5.221 4.73568 5.4828 4.73308 5.75685C4.73049 6.0309 4.83687 6.29476 5.02882 6.49038L8.16506 9.68656L4.96888 12.8228Z" fill="#787878"/>
</svg>
