<svg width="20" height="20" viewBox="0 0 20 20" fill="none" xmlns="http://www.w3.org/2000/svg">
<path d="M7.61186 9.4057H12.4484V7.50918C12.4484 6.81116 12.2123 6.21521 11.74 5.72132C11.2676 5.22744 10.6977 4.9805 10.0302 4.9805C9.3626 4.9805 8.79266 5.22744 8.32034 5.72132C7.84802 6.21521 7.61186 6.81116 7.61186 7.50918V9.4057ZM15.4713 10.354V16.0435C15.4713 16.3069 15.3831 16.5308 15.2068 16.7152C15.0305 16.8996 14.8164 16.9917 14.5645 16.9917H5.49585C5.24394 16.9917 5.02982 16.8996 4.85349 16.7152C4.67716 16.5308 4.58899 16.3069 4.58899 16.0435V10.354C4.58899 10.0905 4.67716 9.86665 4.85349 9.68227C5.02982 9.49789 5.24394 9.4057 5.49585 9.4057H5.79814V7.50918C5.79814 6.29752 6.21378 5.25707 7.04507 4.38784C7.87636 3.5186 8.87138 3.08398 10.0302 3.08398C11.1889 3.08398 12.1839 3.5186 13.0152 4.38784C13.8465 5.25707 14.2622 6.29752 14.2622 7.50918V9.4057H14.5645C14.8164 9.4057 15.0305 9.49789 15.2068 9.68227C15.3831 9.86665 15.4713 10.0905 15.4713 10.354Z" fill="#787878"/>
</svg>
