<?xml version="1.0" encoding="UTF-8"?>
<svg id="Layer_1" data-name="Layer 1" xmlns="http://www.w3.org/2000/svg" version="1.1" viewBox="0 0 208 191.9">
  <defs>
    <style>
      .cls-1 {
        fill: #371c1e;
        stroke-width: 0px;
      }
    </style>
  </defs>
  <polygon class="cls-1" points="76 89.5 88 89.5 88 89.5 82 72.5 76 89.5"/>
  <path class="cls-1" d="M104,0C46.6,0,0,36.7,0,82s19.5,55,48.8,69.5c-1.6,5.5-10.2,35.3-10.6,37.7,0,0-.2,1.8.9,2.4.8.4,1.7.4,2.5.1,3.3-.5,38-24.8,44-29,6.1.8,12.3,1.3,18.4,1.2,57.4,0,104-36.7,104-82S161.4,0,104,0ZM52.5,69.3c-.1,11.6,0,23.8,0,35.2,0,3.7-2.2,4.7-5,5.8-.3.1-.7.1-1,0-3.2-.6-5.8-1.8-5.9-5.8-.2-11.4,0-23.6,0-35.2-2.8-.1-6.7.1-9.2,0-3.5-.2-6-2.5-5.9-5.8s1.9-5.8,5.9-5.8c9.4-.1,21-.1,30.4,0,4,0,5.8,2.5,5.9,5.8.1,3.3-2.3,5.6-5.8,5.8-2.5.1-6.4-.1-9.2,0ZM102.9,109.7c-1.2.5-2.5.8-3.8.8-2.5,0-4.4-1-5-2.7l-3-7.8h-18.3l-3,7.8c-.6,1.6-2.5,2.7-5,2.7-1.3,0-2.6-.3-3.8-.8-1.7-.8-3.2-2.9-1.4-8.5l14.4-37.8c1.2-3.4,4.4-5.7,8-5.9,3.6.2,6.8,2.5,8,5.9l14.3,37.8c1.8,5.7.2,7.8-1.4,8.5ZM133.2,109.7h-19.2c-3.1,0-5.7-2.4-5.8-5.5v-40.7c.1-3.4,3-6,6.4-5.9,3.2.1,5.7,2.7,5.9,5.9v35.2h12.8c3-.2,5.6,2.1,5.8,5.2s-2.1,5.6-5.2,5.8c-.2,0-.4,0-.7,0h0ZM180.2,105.2c-.4,3.3-3.4,5.6-6.7,5.2-1.6-.2-3.1-1.1-4-2.4l-14.1-18.6-2.1,2.1v13.1c0,3.3-2.7,6-6,6s-6-2.7-6-6v-41c0-3.3,2.7-6,6-6s6,2.7,6,6v12.9l16.7-16.7c.9-.9,2.1-1.4,3.3-1.3,3.1,0,5.6,2.5,5.9,5.6.1,1.3-.4,2.7-1.3,3.7l-13.7,13.7,14.8,19.6c1,1.3,1.4,2.9,1.1,4.4h0Z"/>
</svg>